<svg width="20" height="19" viewBox="0 0 20 19" fill="none" xmlns="http://www.w3.org/2000/svg">
<path d="M19.5861 9.28726L10.499 0.206807C10.4336 0.14125 10.3559 0.0892393 10.2703 0.0537527C10.1847 0.0182661 10.093 0 10.0004 0C9.90779 0 9.81608 0.0182661 9.73053 0.0537527C9.64497 0.0892393 9.56726 0.14125 9.50183 0.206807L0.414753 9.28726C0.150017 9.552 0 9.9116 0 10.2866C0 11.0654 0.633161 11.6986 1.41193 11.6986H2.36939V18.178C2.36939 18.5685 2.68487 18.884 3.07535 18.884H8.58849V13.9422H11.0594V18.884H16.9255C17.316 18.884 17.6314 18.5685 17.6314 18.178V11.6986H18.5889C18.9639 11.6986 19.3235 11.5508 19.5883 11.2838C20.1376 10.7323 20.1376 9.8388 19.5861 9.28726Z" fill="white"/>
</svg>
