<svg width="20" height="20" viewBox="0 0 20 20" fill="none" xmlns="http://www.w3.org/2000/svg">
<path d="M8.95657 0.611322C9.34775 0.220015 9.87836 0.00011817 10.4317 0H17.9136C18.4669 0 18.9976 0.219819 19.3889 0.611099C19.7802 1.00238 20 1.53307 20 2.08642V9.56833C19.9999 10.1216 19.78 10.6522 19.3887 11.0434L11.043 19.3891C10.6517 19.7803 10.1211 20 9.56789 20C9.01464 20 8.48405 19.7803 8.09279 19.3891L0.610876 11.9072C0.219732 11.516 0 10.9854 0 10.4321C0 9.87887 0.219732 9.34827 0.610876 8.95701L8.95657 0.611322ZM14.7839 7.30248C15.3374 7.30234 15.8682 7.08233 16.2595 6.69086C16.6508 6.29938 16.8705 5.76851 16.8704 5.21501C16.8702 4.66152 16.6502 4.13075 16.2587 3.73947C15.8673 3.34819 15.3364 3.12845 14.7829 3.12859C14.2294 3.12873 13.6986 3.34874 13.3074 3.74021C12.9161 4.13169 12.6963 4.66256 12.6965 5.21606C12.6966 5.76955 12.9166 6.30032 13.3081 6.6916C13.6996 7.08288 14.2305 7.30262 14.7839 7.30248Z" fill="#333333"/>
</svg>
