<svg width="20" height="14" viewBox="0 0 20 14" fill="none" xmlns="http://www.w3.org/2000/svg">
<path d="M20 8.83333C20 9.33333 19 9.66667 17.8333 9.83333C17.0833 8.41667 15.5833 7.33333 13.8333 6.58333C14 6.33333 14.1667 6.16667 14.3333 5.91667H15C17.5833 5.83333 20 7.41667 20 8.83333ZM5.66667 5.83333H5C2.41667 5.83333 0 7.41667 0 8.83333C0 9.33333 1 9.66667 2.16667 9.83333C2.91667 8.41667 4.41667 7.33333 6.16667 6.58333L5.66667 5.83333ZM10 6.66667C11.8333 6.66667 13.3333 5.16667 13.3333 3.33333C13.3333 1.5 11.8333 0 10 0C8.16667 0 6.66667 1.5 6.66667 3.33333C6.66667 5.16667 8.16667 6.66667 10 6.66667ZM10 7.5C6.58333 7.5 3.33333 9.66667 3.33333 11.6667C3.33333 13.3333 10 13.3333 10 13.3333C10 13.3333 16.6667 13.3333 16.6667 11.6667C16.6667 9.66667 13.4167 7.5 10 7.5ZM14.75 5H15C16.4167 5 17.5 3.91667 17.5 2.5C17.5 1.08333 16.4167 0 15 0C14.5833 0 14.25 0.0833335 13.9167 0.25C14.5833 1.08333 15 2.16667 15 3.33333C15 3.91667 14.9167 4.5 14.75 5ZM5 5H5.25C5.08333 4.5 5 3.91667 5 3.33333C5 2.16667 5.41667 1.08333 6.08333 0.25C5.75 0.0833335 5.41667 0 5 0C3.58333 0 2.5 1.08333 2.5 2.5C2.5 3.91667 3.58333 5 5 5Z" fill="#333333"/>
</svg>
