<svg width="211" height="19" viewBox="0 0 211 19" fill="none" xmlns="http://www.w3.org/2000/svg">
<path d="M5.9 3.25H0.1V0.499999H14.95V3.25H9.15V18H5.9V3.25ZM27.8602 13.95H19.1102L17.3852 18H14.0352L21.9102 0.499999H25.1102L33.0102 18H29.6102L27.8602 13.95ZM26.7852 11.4L23.4852 3.75L20.2102 11.4H26.7852ZM40.6607 18.25C39.3107 18.25 38.0024 18.0583 36.7357 17.675C35.4857 17.2917 34.4941 16.7833 33.7607 16.15L34.8857 13.625C35.6024 14.1917 36.4774 14.6583 37.5107 15.025C38.5607 15.375 39.6107 15.55 40.6607 15.55C41.9607 15.55 42.9274 15.3417 43.5607 14.925C44.2107 14.5083 44.5357 13.9583 44.5357 13.275C44.5357 12.775 44.3524 12.3667 43.9857 12.05C43.6357 11.7167 43.1857 11.4583 42.6357 11.275C42.0857 11.0917 41.3357 10.8833 40.3857 10.65C39.0524 10.3333 37.9691 10.0167 37.1357 9.7C36.3191 9.38333 35.6107 8.89167 35.0107 8.225C34.4274 7.54167 34.1357 6.625 34.1357 5.475C34.1357 4.50833 34.3941 3.63333 34.9107 2.85C35.4441 2.05 36.2357 1.41667 37.2857 0.949999C38.3524 0.483332 39.6524 0.249999 41.1857 0.249999C42.2524 0.249999 43.3024 0.383333 44.3357 0.65C45.3691 0.916666 46.2607 1.3 47.0107 1.8L45.9857 4.325C45.2191 3.875 44.4191 3.53333 43.5857 3.3C42.7524 3.06667 41.9441 2.95 41.1607 2.95C39.8774 2.95 38.9191 3.16667 38.2857 3.6C37.6691 4.03333 37.3607 4.60833 37.3607 5.325C37.3607 5.825 37.5357 6.23333 37.8857 6.55C38.2524 6.86667 38.7107 7.11667 39.2607 7.3C39.8107 7.48333 40.5607 7.69167 41.5107 7.925C42.8107 8.225 43.8774 8.54167 44.7107 8.875C45.5441 9.19167 46.2524 9.68333 46.8357 10.35C47.4357 11.0167 47.7357 11.9167 47.7357 13.05C47.7357 14.0167 47.4691 14.8917 46.9357 15.675C46.4191 16.4583 45.6274 17.0833 44.5607 17.55C43.4941 18.0167 42.1941 18.25 40.6607 18.25ZM56.9834 10.675L54.2084 13.525V18H50.9584V0.499999H54.2084V9.475L62.8584 0.499999H66.5084L59.1584 8.325L66.9584 18H63.1584L56.9834 10.675ZM67.3174 9.75H74.1924V12.35H67.3174V9.75ZM93.9865 18L93.9615 6.4L88.2115 16H86.7615L81.0115 6.55V18H77.9115V0.499999H80.5865L87.5365 12.1L94.3615 0.499999H97.0365L97.0615 18H93.9865ZM113.138 13.95H104.388L102.663 18H99.3135L107.188 0.499999H110.388L118.288 18H114.888L113.138 13.95ZM112.063 11.4L108.763 3.75L105.488 11.4H112.063ZM136.064 0.499999V18H133.389L123.739 6.15V18H120.514V0.499999H123.189L132.839 12.35V0.499999H136.064ZM152.103 13.95H143.353L141.628 18H138.278L146.153 0.499999H149.353L157.253 18H153.853L152.103 13.95ZM151.028 11.4L147.728 3.75L144.453 11.4H151.028ZM171.185 9.05H174.26V16.025C173.36 16.7417 172.31 17.2917 171.11 17.675C169.91 18.0583 168.676 18.25 167.41 18.25C165.626 18.25 164.018 17.8667 162.585 17.1C161.151 16.3167 160.026 15.2417 159.21 13.875C158.393 12.5083 157.985 10.9667 157.985 9.25C157.985 7.53333 158.393 5.99167 159.21 4.625C160.026 3.25833 161.151 2.19167 162.585 1.425C164.035 0.641666 165.66 0.249999 167.46 0.249999C168.926 0.249999 170.26 0.491666 171.46 0.974999C172.66 1.45833 173.668 2.16667 174.485 3.1L172.435 5.1C171.101 3.76667 169.493 3.1 167.61 3.1C166.376 3.1 165.276 3.35833 164.31 3.875C163.36 4.39167 162.61 5.11667 162.06 6.05C161.526 6.98333 161.26 8.05 161.26 9.25C161.26 10.4167 161.526 11.4667 162.06 12.4C162.61 13.3333 163.36 14.0667 164.31 14.6C165.276 15.1333 166.368 15.4 167.585 15.4C168.951 15.4 170.151 15.1 171.185 14.5V9.05ZM191.671 15.275V18H178.546V0.499999H191.321V3.225H181.796V7.775H190.246V10.45H181.796V15.275H191.671ZM206.744 18L203.169 12.875C203.019 12.8917 202.794 12.9 202.494 12.9H198.544V18H195.294V0.499999H202.494C204.011 0.499999 205.328 0.749999 206.444 1.25C207.578 1.75 208.444 2.46667 209.044 3.4C209.644 4.33333 209.944 5.44167 209.944 6.725C209.944 8.04167 209.619 9.175 208.969 10.125C208.336 11.075 207.419 11.7833 206.219 12.25L210.244 18H206.744ZM206.669 6.725C206.669 5.60833 206.303 4.75 205.569 4.15C204.836 3.55 203.761 3.25 202.344 3.25H198.544V10.225H202.344C203.761 10.225 204.836 9.925 205.569 9.325C206.303 8.70833 206.669 7.84167 206.669 6.725Z" fill="white"/>
</svg>
