<svg width="1440" height="1024" viewBox="0 0 1440 1024" fill="none" xmlns="http://www.w3.org/2000/svg">
<rect width="1440" height="1024" fill="#F6F6F6"/>
<path d="M627.789 346.605C627.789 345.855 627.523 345.277 626.992 344.871C626.469 344.465 625.52 344.055 624.145 343.641C622.77 343.227 621.676 342.766 620.863 342.258C619.309 341.281 618.531 340.008 618.531 338.438C618.531 337.062 619.09 335.93 620.207 335.039C621.332 334.148 622.789 333.703 624.578 333.703C625.766 333.703 626.824 333.922 627.754 334.359C628.684 334.797 629.414 335.422 629.945 336.234C630.477 337.039 630.742 337.934 630.742 338.918H627.789C627.789 338.027 627.508 337.332 626.945 336.832C626.391 336.324 625.594 336.07 624.555 336.07C623.586 336.07 622.832 336.277 622.293 336.691C621.762 337.105 621.496 337.684 621.496 338.426C621.496 339.051 621.785 339.574 622.363 339.996C622.941 340.41 623.895 340.816 625.223 341.215C626.551 341.605 627.617 342.055 628.422 342.562C629.227 343.062 629.816 343.641 630.191 344.297C630.566 344.945 630.754 345.707 630.754 346.582C630.754 348.004 630.207 349.137 629.113 349.98C628.027 350.816 626.551 351.234 624.684 351.234C623.449 351.234 622.312 351.008 621.273 350.555C620.242 350.094 619.438 349.461 618.859 348.656C618.289 347.852 618.004 346.914 618.004 345.844H620.969C620.969 346.812 621.289 347.562 621.93 348.094C622.57 348.625 623.488 348.891 624.684 348.891C625.715 348.891 626.488 348.684 627.004 348.27C627.527 347.848 627.789 347.293 627.789 346.605ZM638.664 351.234C636.859 351.234 635.395 350.668 634.27 349.535C633.152 348.395 632.594 346.879 632.594 344.988V344.637C632.594 343.371 632.836 342.242 633.32 341.25C633.812 340.25 634.5 339.473 635.383 338.918C636.266 338.363 637.25 338.086 638.336 338.086C640.062 338.086 641.395 338.637 642.332 339.738C643.277 340.84 643.75 342.398 643.75 344.414V345.562H635.465C635.551 346.609 635.898 347.438 636.508 348.047C637.125 348.656 637.898 348.961 638.828 348.961C640.133 348.961 641.195 348.434 642.016 347.379L643.551 348.844C643.043 349.602 642.363 350.191 641.512 350.613C640.668 351.027 639.719 351.234 638.664 351.234ZM638.324 340.371C637.543 340.371 636.91 340.645 636.426 341.191C635.949 341.738 635.645 342.5 635.512 343.477H640.938V343.266C640.875 342.312 640.621 341.594 640.176 341.109C639.73 340.617 639.113 340.371 638.324 340.371ZM648.941 338.32V352.125C648.941 353.422 648.617 354.41 647.969 355.09C647.328 355.777 646.387 356.121 645.145 356.121C644.621 356.121 644.117 356.055 643.633 355.922V353.672C643.93 353.742 644.266 353.777 644.641 353.777C645.586 353.777 646.07 353.262 646.094 352.23V338.32H648.941ZM645.848 335.027C645.848 334.59 645.984 334.227 646.258 333.938C646.539 333.648 646.938 333.504 647.453 333.504C647.969 333.504 648.367 333.648 648.648 333.938C648.93 334.227 649.07 334.59 649.07 335.027C649.07 335.457 648.93 335.816 648.648 336.105C648.367 336.387 647.969 336.527 647.453 336.527C646.938 336.527 646.539 336.387 646.258 336.105C645.984 335.816 645.848 335.457 645.848 335.027ZM659.57 351C659.445 350.758 659.336 350.363 659.242 349.816C658.336 350.762 657.227 351.234 655.914 351.234C654.641 351.234 653.602 350.871 652.797 350.145C651.992 349.418 651.59 348.52 651.59 347.449C651.59 346.098 652.09 345.062 653.09 344.344C654.098 343.617 655.535 343.254 657.402 343.254H659.148V342.422C659.148 341.766 658.965 341.242 658.598 340.852C658.23 340.453 657.672 340.254 656.922 340.254C656.273 340.254 655.742 340.418 655.328 340.746C654.914 341.066 654.707 341.477 654.707 341.977H651.859C651.859 341.281 652.09 340.633 652.551 340.031C653.012 339.422 653.637 338.945 654.426 338.602C655.223 338.258 656.109 338.086 657.086 338.086C658.57 338.086 659.754 338.461 660.637 339.211C661.52 339.953 661.973 341 661.996 342.352V348.07C661.996 349.211 662.156 350.121 662.477 350.801V351H659.57ZM656.441 348.949C657.004 348.949 657.531 348.812 658.023 348.539C658.523 348.266 658.898 347.898 659.148 347.438V345.047H657.613C656.559 345.047 655.766 345.23 655.234 345.598C654.703 345.965 654.438 346.484 654.438 347.156C654.438 347.703 654.617 348.141 654.977 348.469C655.344 348.789 655.832 348.949 656.441 348.949ZM682.082 344.789C682.082 346.758 681.641 348.324 680.758 349.488C679.883 350.652 678.676 351.234 677.137 351.234C675.652 351.234 674.496 350.699 673.668 349.629L673.527 351H670.949V333H673.797V339.539C674.617 338.57 675.723 338.086 677.113 338.086C678.66 338.086 679.875 338.66 680.758 339.809C681.641 340.957 682.082 342.562 682.082 344.625V344.789ZM679.234 344.543C679.234 343.168 678.992 342.137 678.508 341.449C678.023 340.762 677.32 340.418 676.398 340.418C675.164 340.418 674.297 340.957 673.797 342.035V347.262C674.305 348.363 675.18 348.914 676.422 348.914C677.312 348.914 678 348.582 678.484 347.918C678.969 347.254 679.219 346.25 679.234 344.906V344.543ZM690.062 351.234C688.258 351.234 686.793 350.668 685.668 349.535C684.551 348.395 683.992 346.879 683.992 344.988V344.637C683.992 343.371 684.234 342.242 684.719 341.25C685.211 340.25 685.898 339.473 686.781 338.918C687.664 338.363 688.648 338.086 689.734 338.086C691.461 338.086 692.793 338.637 693.73 339.738C694.676 340.84 695.148 342.398 695.148 344.414V345.562H686.863C686.949 346.609 687.297 347.438 687.906 348.047C688.523 348.656 689.297 348.961 690.227 348.961C691.531 348.961 692.594 348.434 693.414 347.379L694.949 348.844C694.441 349.602 693.762 350.191 692.91 350.613C692.066 351.027 691.117 351.234 690.062 351.234ZM689.723 340.371C688.941 340.371 688.309 340.645 687.824 341.191C687.348 341.738 687.043 342.5 686.91 343.477H692.336V343.266C692.273 342.312 692.02 341.594 691.574 341.109C691.129 340.617 690.512 340.371 689.723 340.371ZM700.047 338.32L700.129 339.645C701.02 338.605 702.238 338.086 703.785 338.086C705.48 338.086 706.641 338.734 707.266 340.031C708.188 338.734 709.484 338.086 711.156 338.086C712.555 338.086 713.594 338.473 714.273 339.246C714.961 340.02 715.312 341.16 715.328 342.668V351H712.48V342.75C712.48 341.945 712.305 341.355 711.953 340.98C711.602 340.605 711.02 340.418 710.207 340.418C709.559 340.418 709.027 340.594 708.613 340.945C708.207 341.289 707.922 341.742 707.758 342.305L707.77 351H704.922V342.656C704.883 341.164 704.121 340.418 702.637 340.418C701.496 340.418 700.688 340.883 700.211 341.812V351H697.363V338.32H700.047ZM723.777 344.895H717.625V342.598H723.777V344.895ZM730.598 347.391L733.281 338.32H736.223L731.828 351H729.355L724.926 338.32H727.879L730.598 347.391ZM741.039 351H738.191V338.32H741.039V351ZM738.016 335.027C738.016 334.59 738.152 334.227 738.426 333.938C738.707 333.648 739.105 333.504 739.621 333.504C740.137 333.504 740.535 333.648 740.816 333.938C741.098 334.227 741.238 334.59 741.238 335.027C741.238 335.457 741.098 335.816 740.816 336.105C740.535 336.387 740.137 336.527 739.621 336.527C739.105 336.527 738.707 336.387 738.426 336.105C738.152 335.816 738.016 335.457 738.016 335.027ZM746.793 338.32L746.875 339.785C747.812 338.652 749.043 338.086 750.566 338.086C753.207 338.086 754.551 339.598 754.598 342.621V351H751.75V342.785C751.75 341.98 751.574 341.387 751.223 341.004C750.879 340.613 750.312 340.418 749.523 340.418C748.375 340.418 747.52 340.938 746.957 341.977V351H744.109V338.32H746.793ZM756.977 344.566C756.977 342.613 757.43 341.047 758.336 339.867C759.242 338.68 760.457 338.086 761.98 338.086C763.324 338.086 764.41 338.555 765.238 339.492V333H768.086V351H765.508L765.367 349.688C764.516 350.719 763.379 351.234 761.957 351.234C760.473 351.234 759.27 350.637 758.348 349.441C757.434 348.246 756.977 346.621 756.977 344.566ZM759.824 344.812C759.824 346.102 760.07 347.109 760.562 347.836C761.062 348.555 761.77 348.914 762.684 348.914C763.848 348.914 764.699 348.395 765.238 347.355V341.941C764.715 340.926 763.871 340.418 762.707 340.418C761.785 340.418 761.074 340.785 760.574 341.52C760.074 342.246 759.824 343.344 759.824 344.812ZM770.523 344.543C770.523 343.301 770.77 342.184 771.262 341.191C771.754 340.191 772.445 339.426 773.336 338.895C774.227 338.355 775.25 338.086 776.406 338.086C778.117 338.086 779.504 338.637 780.566 339.738C781.637 340.84 782.215 342.301 782.301 344.121L782.312 344.789C782.312 346.039 782.07 347.156 781.586 348.141C781.109 349.125 780.422 349.887 779.523 350.426C778.633 350.965 777.602 351.234 776.43 351.234C774.641 351.234 773.207 350.641 772.129 349.453C771.059 348.258 770.523 346.668 770.523 344.684V344.543ZM773.371 344.789C773.371 346.094 773.641 347.117 774.18 347.859C774.719 348.594 775.469 348.961 776.43 348.961C777.391 348.961 778.137 348.586 778.668 347.836C779.207 347.086 779.477 345.988 779.477 344.543C779.477 343.262 779.199 342.246 778.645 341.496C778.098 340.746 777.352 340.371 776.406 340.371C775.477 340.371 774.738 340.742 774.191 341.484C773.645 342.219 773.371 343.32 773.371 344.789ZM798.273 351C798.148 350.758 798.039 350.363 797.945 349.816C797.039 350.762 795.93 351.234 794.617 351.234C793.344 351.234 792.305 350.871 791.5 350.145C790.695 349.418 790.293 348.52 790.293 347.449C790.293 346.098 790.793 345.062 791.793 344.344C792.801 343.617 794.238 343.254 796.105 343.254H797.852V342.422C797.852 341.766 797.668 341.242 797.301 340.852C796.934 340.453 796.375 340.254 795.625 340.254C794.977 340.254 794.445 340.418 794.031 340.746C793.617 341.066 793.41 341.477 793.41 341.977H790.562C790.562 341.281 790.793 340.633 791.254 340.031C791.715 339.422 792.34 338.945 793.129 338.602C793.926 338.258 794.812 338.086 795.789 338.086C797.273 338.086 798.457 338.461 799.34 339.211C800.223 339.953 800.676 341 800.699 342.352V348.07C800.699 349.211 800.859 350.121 801.18 350.801V351H798.273ZM795.145 348.949C795.707 348.949 796.234 348.812 796.727 348.539C797.227 348.266 797.602 347.898 797.852 347.438V345.047H796.316C795.262 345.047 794.469 345.23 793.938 345.598C793.406 345.965 793.141 346.484 793.141 347.156C793.141 347.703 793.32 348.141 793.68 348.469C794.047 348.789 794.535 348.949 795.145 348.949ZM803.148 344.543C803.148 343.301 803.395 342.184 803.887 341.191C804.379 340.191 805.07 339.426 805.961 338.895C806.852 338.355 807.875 338.086 809.031 338.086C810.742 338.086 812.129 338.637 813.191 339.738C814.262 340.84 814.84 342.301 814.926 344.121L814.938 344.789C814.938 346.039 814.695 347.156 814.211 348.141C813.734 349.125 813.047 349.887 812.148 350.426C811.258 350.965 810.227 351.234 809.055 351.234C807.266 351.234 805.832 350.641 804.754 349.453C803.684 348.258 803.148 346.668 803.148 344.684V344.543ZM805.996 344.789C805.996 346.094 806.266 347.117 806.805 347.859C807.344 348.594 808.094 348.961 809.055 348.961C810.016 348.961 810.762 348.586 811.293 347.836C811.832 347.086 812.102 345.988 812.102 344.543C812.102 343.262 811.824 342.246 811.27 341.496C810.723 340.746 809.977 340.371 809.031 340.371C808.102 340.371 807.363 340.742 806.816 341.484C806.27 342.219 805.996 343.32 805.996 344.789ZM643.656 364.328H638.336V379H635.395V364.328H630.121V361.938H643.656V364.328ZM654.051 375.027H647.441L646.059 379H642.977L649.422 361.938H652.082L658.539 379H655.445L654.051 375.027ZM648.273 372.637H653.219L650.746 365.559L648.273 372.637ZM669.402 374.605C669.402 373.855 669.137 373.277 668.605 372.871C668.082 372.465 667.133 372.055 665.758 371.641C664.383 371.227 663.289 370.766 662.477 370.258C660.922 369.281 660.145 368.008 660.145 366.438C660.145 365.062 660.703 363.93 661.82 363.039C662.945 362.148 664.402 361.703 666.191 361.703C667.379 361.703 668.438 361.922 669.367 362.359C670.297 362.797 671.027 363.422 671.559 364.234C672.09 365.039 672.355 365.934 672.355 366.918H669.402C669.402 366.027 669.121 365.332 668.559 364.832C668.004 364.324 667.207 364.07 666.168 364.07C665.199 364.07 664.445 364.277 663.906 364.691C663.375 365.105 663.109 365.684 663.109 366.426C663.109 367.051 663.398 367.574 663.977 367.996C664.555 368.41 665.508 368.816 666.836 369.215C668.164 369.605 669.23 370.055 670.035 370.562C670.84 371.062 671.43 371.641 671.805 372.297C672.18 372.945 672.367 373.707 672.367 374.582C672.367 376.004 671.82 377.137 670.727 377.98C669.641 378.816 668.164 379.234 666.297 379.234C665.062 379.234 663.926 379.008 662.887 378.555C661.855 378.094 661.051 377.461 660.473 376.656C659.902 375.852 659.617 374.914 659.617 373.844H662.582C662.582 374.812 662.902 375.562 663.543 376.094C664.184 376.625 665.102 376.891 666.297 376.891C667.328 376.891 668.102 376.684 668.617 376.27C669.141 375.848 669.402 375.293 669.402 374.605ZM679.867 371.629L677.934 373.68V379H674.969V361.938H677.934V369.941L679.574 367.914L684.566 361.938H688.152L681.812 369.496L688.516 379H685L679.867 371.629ZM693.438 372.895H687.285V370.598H693.438V372.895ZM699.906 361.938L704.828 375.016L709.738 361.938H713.57V379H710.617V373.375L710.91 365.852L705.871 379H703.75L698.723 365.863L699.016 373.375V379H696.062V361.938H699.906ZM726.848 375.027H720.238L718.855 379H715.773L722.219 361.938H724.879L731.336 379H728.242L726.848 375.027ZM721.07 372.637H726.016L723.543 365.559L721.07 372.637ZM746.816 379H743.852L736.246 366.895V379H733.281V361.938H736.246L743.875 374.09V361.938H746.816V379ZM760.082 375.027H753.473L752.09 379H749.008L755.453 361.938H758.113L764.57 379H761.477L760.082 375.027ZM754.305 372.637H759.25L756.777 365.559L754.305 372.637ZM779.336 376.785C778.719 377.59 777.863 378.199 776.77 378.613C775.676 379.027 774.434 379.234 773.043 379.234C771.613 379.234 770.348 378.91 769.246 378.262C768.145 377.613 767.293 376.688 766.691 375.484C766.098 374.273 765.789 372.863 765.766 371.254V369.918C765.766 367.34 766.383 365.328 767.617 363.883C768.852 362.43 770.574 361.703 772.785 361.703C774.684 361.703 776.191 362.172 777.309 363.109C778.426 364.047 779.098 365.398 779.324 367.164H776.418C776.09 365.109 774.898 364.082 772.844 364.082C771.516 364.082 770.504 364.562 769.809 365.523C769.121 366.477 768.766 367.879 768.742 369.73V371.043C768.742 372.887 769.129 374.32 769.902 375.344C770.684 376.359 771.766 376.867 773.148 376.867C774.664 376.867 775.742 376.523 776.383 375.836V372.496H772.867V370.246H779.336V376.785ZM792.566 371.383H785.559V376.633H793.75V379H782.594V361.938H793.668V364.328H785.559V369.039H792.566V371.383ZM802.434 372.426H799.129V379H796.164V361.938H802.164C804.133 361.938 805.652 362.379 806.723 363.262C807.793 364.145 808.328 365.422 808.328 367.094C808.328 368.234 808.051 369.191 807.496 369.965C806.949 370.73 806.184 371.32 805.199 371.734L809.031 378.848V379H805.855L802.434 372.426ZM799.129 370.047H802.176C803.176 370.047 803.957 369.797 804.52 369.297C805.082 368.789 805.363 368.098 805.363 367.223C805.363 366.309 805.102 365.602 804.578 365.102C804.062 364.602 803.289 364.344 802.258 364.328H799.129V370.047Z" fill="black"/>
<path d="M507.088 423.155V429H505.119V414.07H510.625C512.259 414.07 513.538 414.487 514.46 415.321C515.39 416.155 515.855 417.259 515.855 418.633C515.855 420.083 515.4 421.2 514.491 421.986C513.589 422.766 512.293 423.155 510.605 423.155H507.088ZM507.088 421.545H510.625C511.678 421.545 512.485 421.299 513.045 420.807C513.606 420.308 513.886 419.59 513.886 418.654C513.886 417.765 513.606 417.054 513.045 416.521C512.485 415.988 511.716 415.711 510.738 415.69H507.088V421.545ZM517.424 423.35C517.424 422.263 517.636 421.286 518.06 420.417C518.49 419.549 519.085 418.879 519.844 418.408C520.609 417.936 521.481 417.7 522.458 417.7C523.969 417.7 525.189 418.223 526.119 419.269C527.056 420.315 527.524 421.706 527.524 423.442V423.576C527.524 424.656 527.315 425.626 526.898 426.488C526.488 427.342 525.897 428.009 525.125 428.487C524.359 428.966 523.477 429.205 522.479 429.205C520.975 429.205 519.755 428.682 518.818 427.636C517.889 426.59 517.424 425.206 517.424 423.483V423.35ZM519.331 423.576C519.331 424.806 519.615 425.794 520.182 426.539C520.756 427.284 521.522 427.657 522.479 427.657C523.443 427.657 524.208 427.281 524.776 426.529C525.343 425.77 525.627 424.71 525.627 423.35C525.627 422.133 525.336 421.149 524.755 420.397C524.181 419.638 523.416 419.259 522.458 419.259C521.522 419.259 520.767 419.631 520.192 420.376C519.618 421.122 519.331 422.188 519.331 423.576ZM535.266 419.607C534.979 419.56 534.667 419.536 534.333 419.536C533.088 419.536 532.244 420.065 531.8 421.125V429H529.903V417.905H531.749L531.779 419.187C532.401 418.196 533.283 417.7 534.425 417.7C534.794 417.7 535.074 417.748 535.266 417.844V419.607ZM548.688 426.057C548.688 425.544 548.493 425.148 548.104 424.868C547.721 424.581 547.047 424.334 546.083 424.129C545.126 423.924 544.364 423.678 543.797 423.391C543.236 423.104 542.819 422.762 542.546 422.366C542.279 421.969 542.146 421.498 542.146 420.951C542.146 420.042 542.529 419.272 543.294 418.644C544.067 418.015 545.051 417.7 546.248 417.7C547.505 417.7 548.524 418.025 549.303 418.674C550.089 419.324 550.482 420.154 550.482 421.166H548.575C548.575 420.646 548.353 420.199 547.909 419.823C547.471 419.447 546.917 419.259 546.248 419.259C545.557 419.259 545.017 419.409 544.627 419.71C544.238 420.011 544.043 420.404 544.043 420.889C544.043 421.347 544.224 421.692 544.586 421.925C544.949 422.157 545.602 422.379 546.545 422.591C547.495 422.803 548.264 423.056 548.852 423.35C549.44 423.644 549.874 424 550.154 424.417C550.441 424.827 550.585 425.329 550.585 425.924C550.585 426.915 550.188 427.711 549.396 428.313C548.603 428.908 547.574 429.205 546.309 429.205C545.42 429.205 544.634 429.048 543.951 428.733C543.267 428.419 542.73 427.981 542.341 427.421C541.958 426.854 541.767 426.242 541.767 425.585H543.664C543.698 426.221 543.951 426.727 544.422 427.103C544.901 427.472 545.53 427.657 546.309 427.657C547.027 427.657 547.601 427.513 548.032 427.226C548.469 426.932 548.688 426.542 548.688 426.057ZM557.66 429.205C556.156 429.205 554.933 428.713 553.989 427.729C553.046 426.737 552.574 425.415 552.574 423.76V423.412C552.574 422.311 552.783 421.33 553.2 420.469C553.624 419.601 554.211 418.924 554.963 418.438C555.722 417.946 556.542 417.7 557.424 417.7C558.867 417.7 559.988 418.175 560.788 419.125C561.587 420.076 561.987 421.436 561.987 423.207V423.996H554.471C554.499 425.09 554.816 425.975 555.425 426.652C556.04 427.322 556.819 427.657 557.763 427.657C558.433 427.657 559 427.52 559.465 427.247C559.93 426.973 560.336 426.611 560.685 426.16L561.844 427.062C560.914 428.491 559.52 429.205 557.66 429.205ZM557.424 419.259C556.659 419.259 556.016 419.539 555.497 420.1C554.977 420.653 554.656 421.433 554.533 422.438H560.09V422.294C560.036 421.33 559.776 420.585 559.311 420.059C558.846 419.525 558.217 419.259 557.424 419.259ZM569.555 419.607C569.268 419.56 568.957 419.536 568.622 419.536C567.377 419.536 566.533 420.065 566.089 421.125V429H564.192V417.905H566.038L566.068 419.187C566.69 418.196 567.572 417.7 568.714 417.7C569.083 417.7 569.363 417.748 569.555 417.844V419.607ZM582.977 426.057C582.977 425.544 582.782 425.148 582.393 424.868C582.01 424.581 581.336 424.334 580.373 424.129C579.416 423.924 578.653 423.678 578.086 423.391C577.525 423.104 577.108 422.762 576.835 422.366C576.568 421.969 576.435 421.498 576.435 420.951C576.435 420.042 576.818 419.272 577.583 418.644C578.356 418.015 579.34 417.7 580.537 417.7C581.794 417.7 582.813 418.025 583.592 418.674C584.378 419.324 584.771 420.154 584.771 421.166H582.864C582.864 420.646 582.642 420.199 582.198 419.823C581.76 419.447 581.207 419.259 580.537 419.259C579.846 419.259 579.306 419.409 578.917 419.71C578.527 420.011 578.332 420.404 578.332 420.889C578.332 421.347 578.513 421.692 578.875 421.925C579.238 422.157 579.891 422.379 580.834 422.591C581.784 422.803 582.553 423.056 583.141 423.35C583.729 423.644 584.163 424 584.443 424.417C584.73 424.827 584.874 425.329 584.874 425.924C584.874 426.915 584.478 427.711 583.685 428.313C582.892 428.908 581.863 429.205 580.598 429.205C579.709 429.205 578.923 429.048 578.24 428.733C577.556 428.419 577.02 427.981 576.63 427.421C576.247 426.854 576.056 426.242 576.056 425.585H577.953C577.987 426.221 578.24 426.727 578.711 427.103C579.19 427.472 579.819 427.657 580.598 427.657C581.316 427.657 581.89 427.513 582.321 427.226C582.758 426.932 582.977 426.542 582.977 426.057ZM591.949 429.205C590.445 429.205 589.222 428.713 588.278 427.729C587.335 426.737 586.863 425.415 586.863 423.76V423.412C586.863 422.311 587.072 421.33 587.489 420.469C587.913 419.601 588.5 418.924 589.252 418.438C590.011 417.946 590.832 417.7 591.713 417.7C593.156 417.7 594.277 418.175 595.077 419.125C595.876 420.076 596.276 421.436 596.276 423.207V423.996H588.76C588.788 425.09 589.105 425.975 589.714 426.652C590.329 427.322 591.108 427.657 592.052 427.657C592.722 427.657 593.289 427.52 593.754 427.247C594.219 426.973 594.625 426.611 594.974 426.16L596.133 427.062C595.203 428.491 593.809 429.205 591.949 429.205ZM591.713 419.259C590.948 419.259 590.305 419.539 589.786 420.1C589.266 420.653 588.945 421.433 588.822 422.438H594.379V422.294C594.325 421.33 594.065 420.585 593.6 420.059C593.135 419.525 592.506 419.259 591.713 419.259ZM605.331 427.903C604.592 428.771 603.509 429.205 602.08 429.205C600.897 429.205 599.995 428.863 599.373 428.18C598.758 427.489 598.447 426.471 598.44 425.124V417.905H600.337V425.073C600.337 426.754 601.021 427.595 602.388 427.595C603.837 427.595 604.801 427.055 605.279 425.975V417.905H607.176V429H605.372L605.331 427.903ZM624.649 423.576C624.649 425.264 624.263 426.625 623.49 427.657C622.718 428.689 621.672 429.205 620.353 429.205C619.006 429.205 617.946 428.778 617.174 427.923V433.266H615.277V417.905H617.01L617.102 419.136C617.875 418.179 618.948 417.7 620.322 417.7C621.655 417.7 622.708 418.203 623.48 419.208C624.259 420.212 624.649 421.61 624.649 423.401V423.576ZM622.752 423.36C622.752 422.109 622.485 421.122 621.952 420.397C621.419 419.672 620.688 419.31 619.758 419.31C618.609 419.31 617.748 419.819 617.174 420.838V426.139C617.741 427.151 618.609 427.657 619.778 427.657C620.688 427.657 621.409 427.298 621.942 426.58C622.482 425.855 622.752 424.782 622.752 423.36ZM632.432 419.607C632.145 419.56 631.833 419.536 631.499 419.536C630.254 419.536 629.41 420.065 628.966 421.125V429H627.069V417.905H628.915L628.945 419.187C629.567 418.196 630.449 417.7 631.591 417.7C631.96 417.7 632.24 417.748 632.432 417.844V419.607ZM636.246 429H634.349V417.905H636.246V429ZM634.195 414.962C634.195 414.655 634.288 414.395 634.472 414.183C634.664 413.971 634.944 413.865 635.313 413.865C635.682 413.865 635.962 413.971 636.154 414.183C636.345 414.395 636.441 414.655 636.441 414.962C636.441 415.27 636.345 415.526 636.154 415.731C635.962 415.937 635.682 416.039 635.313 416.039C634.944 416.039 634.664 415.937 634.472 415.731C634.288 415.526 634.195 415.27 634.195 414.962ZM641.076 417.905L641.127 419.136C641.94 418.179 643.038 417.7 644.418 417.7C645.97 417.7 647.026 418.295 647.587 419.484C647.956 418.951 648.435 418.521 649.022 418.192C649.617 417.864 650.318 417.7 651.125 417.7C653.558 417.7 654.795 418.989 654.836 421.566V429H652.939V421.679C652.939 420.886 652.758 420.294 652.396 419.905C652.034 419.508 651.425 419.31 650.571 419.31C649.867 419.31 649.282 419.522 648.817 419.946C648.353 420.363 648.083 420.927 648.007 421.638V429H646.1V421.73C646.1 420.117 645.311 419.31 643.731 419.31C642.487 419.31 641.636 419.84 641.178 420.899V429H639.281V417.905H641.076ZM662.312 429.205C660.808 429.205 659.584 428.713 658.641 427.729C657.697 426.737 657.226 425.415 657.226 423.76V423.412C657.226 422.311 657.434 421.33 657.851 420.469C658.275 419.601 658.863 418.924 659.615 418.438C660.374 417.946 661.194 417.7 662.076 417.7C663.518 417.7 664.639 418.175 665.439 419.125C666.239 420.076 666.639 421.436 666.639 423.207V423.996H659.123C659.15 425.09 659.468 425.975 660.076 426.652C660.691 427.322 661.471 427.657 662.414 427.657C663.084 427.657 663.651 427.52 664.116 427.247C664.581 426.973 664.988 426.611 665.336 426.16L666.495 427.062C665.565 428.491 664.171 429.205 662.312 429.205ZM662.076 419.259C661.31 419.259 660.667 419.539 660.148 420.1C659.628 420.653 659.307 421.433 659.184 422.438H664.742V422.294C664.687 421.33 664.427 420.585 663.962 420.059C663.498 419.525 662.869 419.259 662.076 419.259ZM670.904 429H669.007V417.905H670.904V429ZM668.854 414.962C668.854 414.655 668.946 414.395 669.13 414.183C669.322 413.971 669.602 413.865 669.971 413.865C670.34 413.865 670.621 413.971 670.812 414.183C671.003 414.395 671.099 414.655 671.099 414.962C671.099 415.27 671.003 415.526 670.812 415.731C670.621 415.937 670.34 416.039 669.971 416.039C669.602 416.039 669.322 415.937 669.13 415.731C668.946 415.526 668.854 415.27 668.854 414.962ZM679.312 419.607C679.025 419.56 678.714 419.536 678.379 419.536C677.135 419.536 676.291 420.065 675.847 421.125V429H673.95V417.905H675.795L675.826 419.187C676.448 418.196 677.33 417.7 678.472 417.7C678.841 417.7 679.121 417.748 679.312 417.844V419.607ZM680.358 423.35C680.358 422.263 680.57 421.286 680.994 420.417C681.425 419.549 682.02 418.879 682.778 418.408C683.544 417.936 684.416 417.7 685.393 417.7C686.904 417.7 688.124 418.223 689.054 419.269C689.99 420.315 690.458 421.706 690.458 423.442V423.576C690.458 424.656 690.25 425.626 689.833 426.488C689.423 427.342 688.832 428.009 688.059 428.487C687.293 428.966 686.412 429.205 685.414 429.205C683.91 429.205 682.689 428.682 681.753 427.636C680.823 426.59 680.358 425.206 680.358 423.483V423.35ZM682.266 423.576C682.266 424.806 682.549 425.794 683.117 426.539C683.691 427.284 684.457 427.657 685.414 427.657C686.377 427.657 687.143 427.281 687.71 426.529C688.278 425.77 688.562 424.71 688.562 423.35C688.562 422.133 688.271 421.149 687.69 420.397C687.116 419.638 686.35 419.259 685.393 419.259C684.457 419.259 683.701 419.631 683.127 420.376C682.553 421.122 682.266 422.188 682.266 423.576ZM704.896 429C704.787 428.781 704.698 428.392 704.629 427.831C703.748 428.747 702.695 429.205 701.471 429.205C700.377 429.205 699.479 428.897 698.774 428.282C698.077 427.66 697.729 426.874 697.729 425.924C697.729 424.769 698.166 423.873 699.041 423.237C699.923 422.595 701.16 422.273 702.753 422.273H704.599V421.402C704.599 420.739 704.4 420.212 704.004 419.823C703.607 419.426 703.023 419.228 702.25 419.228C701.574 419.228 701.006 419.399 700.548 419.741C700.09 420.083 699.861 420.496 699.861 420.981H697.954C697.954 420.428 698.149 419.895 698.539 419.382C698.935 418.862 699.468 418.452 700.138 418.151C700.815 417.851 701.557 417.7 702.363 417.7C703.642 417.7 704.643 418.021 705.368 418.664C706.092 419.3 706.468 420.178 706.496 421.299V426.406C706.496 427.424 706.625 428.234 706.885 428.836V429H704.896ZM701.748 427.554C702.343 427.554 702.907 427.4 703.44 427.093C703.973 426.785 704.359 426.385 704.599 425.893V423.617H703.112C700.788 423.617 699.625 424.297 699.625 425.657C699.625 426.252 699.824 426.717 700.22 427.052C700.617 427.387 701.126 427.554 701.748 427.554ZM713.919 427.657C714.596 427.657 715.188 427.452 715.693 427.042C716.199 426.631 716.479 426.119 716.534 425.503H718.329C718.294 426.139 718.076 426.744 717.672 427.318C717.269 427.893 716.729 428.351 716.052 428.692C715.382 429.034 714.671 429.205 713.919 429.205C712.409 429.205 711.206 428.703 710.31 427.698C709.421 426.686 708.977 425.305 708.977 423.555V423.237C708.977 422.157 709.175 421.197 709.572 420.356C709.968 419.515 710.536 418.862 711.274 418.397C712.019 417.933 712.897 417.7 713.909 417.7C715.153 417.7 716.186 418.073 717.006 418.818C717.833 419.563 718.274 420.53 718.329 421.72H716.534C716.479 421.002 716.206 420.414 715.714 419.956C715.229 419.491 714.627 419.259 713.909 419.259C712.945 419.259 712.197 419.607 711.664 420.305C711.137 420.995 710.874 421.997 710.874 423.309V423.668C710.874 424.946 711.137 425.931 711.664 426.621C712.19 427.312 712.942 427.657 713.919 427.657ZM725.065 429.205C723.562 429.205 722.338 428.713 721.395 427.729C720.451 426.737 719.979 425.415 719.979 423.76V423.412C719.979 422.311 720.188 421.33 720.605 420.469C721.029 419.601 721.617 418.924 722.369 418.438C723.127 417.946 723.948 417.7 724.83 417.7C726.272 417.7 727.393 418.175 728.193 419.125C728.993 420.076 729.393 421.436 729.393 423.207V423.996H721.876C721.904 425.09 722.222 425.975 722.83 426.652C723.445 427.322 724.225 427.657 725.168 427.657C725.838 427.657 726.405 427.52 726.87 427.247C727.335 426.973 727.742 426.611 728.09 426.16L729.249 427.062C728.319 428.491 726.925 429.205 725.065 429.205ZM724.83 419.259C724.064 419.259 723.421 419.539 722.902 420.1C722.382 420.653 722.061 421.433 721.938 422.438H727.496V422.294C727.441 421.33 727.181 420.585 726.716 420.059C726.251 419.525 725.623 419.259 724.83 419.259ZM738.057 426.057C738.057 425.544 737.862 425.148 737.473 424.868C737.09 424.581 736.417 424.334 735.453 424.129C734.496 423.924 733.733 423.678 733.166 423.391C732.605 423.104 732.188 422.762 731.915 422.366C731.648 421.969 731.515 421.498 731.515 420.951C731.515 420.042 731.898 419.272 732.664 418.644C733.436 418.015 734.42 417.7 735.617 417.7C736.875 417.7 737.893 418.025 738.672 418.674C739.458 419.324 739.852 420.154 739.852 421.166H737.944C737.944 420.646 737.722 420.199 737.278 419.823C736.84 419.447 736.287 419.259 735.617 419.259C734.926 419.259 734.386 419.409 733.997 419.71C733.607 420.011 733.412 420.404 733.412 420.889C733.412 421.347 733.593 421.692 733.956 421.925C734.318 422.157 734.971 422.379 735.914 422.591C736.864 422.803 737.633 423.056 738.221 423.35C738.809 423.644 739.243 424 739.523 424.417C739.811 424.827 739.954 425.329 739.954 425.924C739.954 426.915 739.558 427.711 738.765 428.313C737.972 428.908 736.943 429.205 735.678 429.205C734.79 429.205 734.003 429.048 733.32 428.733C732.636 428.419 732.1 427.981 731.71 427.421C731.327 426.854 731.136 426.242 731.136 425.585H733.033C733.067 426.221 733.32 426.727 733.792 427.103C734.27 427.472 734.899 427.657 735.678 427.657C736.396 427.657 736.97 427.513 737.401 427.226C737.838 426.932 738.057 426.542 738.057 426.057ZM748.885 426.057C748.885 425.544 748.69 425.148 748.301 424.868C747.918 424.581 747.245 424.334 746.281 424.129C745.324 423.924 744.562 423.678 743.994 423.391C743.434 423.104 743.017 422.762 742.743 422.366C742.477 421.969 742.343 421.498 742.343 420.951C742.343 420.042 742.726 419.272 743.492 418.644C744.264 418.015 745.249 417.7 746.445 417.7C747.703 417.7 748.721 418.025 749.5 418.674C750.287 419.324 750.68 420.154 750.68 421.166H748.772C748.772 420.646 748.55 420.199 748.106 419.823C747.668 419.447 747.115 419.259 746.445 419.259C745.754 419.259 745.214 419.409 744.825 419.71C744.435 420.011 744.24 420.404 744.24 420.889C744.24 421.347 744.421 421.692 744.784 421.925C745.146 422.157 745.799 422.379 746.742 422.591C747.692 422.803 748.461 423.056 749.049 423.35C749.637 423.644 750.071 424 750.352 424.417C750.639 424.827 750.782 425.329 750.782 425.924C750.782 426.915 750.386 427.711 749.593 428.313C748.8 428.908 747.771 429.205 746.506 429.205C745.618 429.205 744.832 429.048 744.148 428.733C743.464 428.419 742.928 427.981 742.538 427.421C742.155 426.854 741.964 426.242 741.964 425.585H743.861C743.895 426.221 744.148 426.727 744.62 427.103C745.098 427.472 745.727 427.657 746.506 427.657C747.224 427.657 747.798 427.513 748.229 427.226C748.667 426.932 748.885 426.542 748.885 426.057ZM752.751 423.35C752.751 422.263 752.963 421.286 753.387 420.417C753.817 419.549 754.412 418.879 755.171 418.408C755.937 417.936 756.808 417.7 757.786 417.7C759.296 417.7 760.517 418.223 761.446 419.269C762.383 420.315 762.851 421.706 762.851 423.442V423.576C762.851 424.656 762.643 425.626 762.226 426.488C761.815 427.342 761.224 428.009 760.452 428.487C759.686 428.966 758.804 429.205 757.806 429.205C756.302 429.205 755.082 428.682 754.146 427.636C753.216 426.59 752.751 425.206 752.751 423.483V423.35ZM754.658 423.576C754.658 424.806 754.942 425.794 755.509 426.539C756.083 427.284 756.849 427.657 757.806 427.657C758.77 427.657 759.536 427.281 760.103 426.529C760.67 425.77 760.954 424.71 760.954 423.35C760.954 422.133 760.664 421.149 760.083 420.397C759.508 419.638 758.743 419.259 757.786 419.259C756.849 419.259 756.094 419.631 755.52 420.376C754.945 421.122 754.658 422.188 754.658 423.576ZM765.168 431.974L764.092 431.235C764.734 430.34 765.069 429.417 765.097 428.467V426.754H766.953V428.241C766.953 428.932 766.782 429.622 766.44 430.312C766.105 431.003 765.681 431.557 765.168 431.974ZM776.622 429H774.725V417.905H776.622V429ZM774.571 414.962C774.571 414.655 774.664 414.395 774.848 414.183C775.04 413.971 775.32 413.865 775.689 413.865C776.058 413.865 776.338 413.971 776.53 414.183C776.721 414.395 776.817 414.655 776.817 414.962C776.817 415.27 776.721 415.526 776.53 415.731C776.338 415.937 776.058 416.039 775.689 416.039C775.32 416.039 775.04 415.937 774.848 415.731C774.664 415.526 774.571 415.27 774.571 414.962ZM781.462 417.905L781.523 419.3C782.371 418.233 783.479 417.7 784.846 417.7C787.19 417.7 788.373 419.023 788.394 421.668V429H786.497V421.658C786.49 420.858 786.305 420.267 785.943 419.884C785.587 419.501 785.03 419.31 784.271 419.31C783.656 419.31 783.116 419.474 782.651 419.802C782.187 420.13 781.824 420.561 781.564 421.094V429H779.667V417.905H781.462ZM797.714 426.057C797.714 425.544 797.52 425.148 797.13 424.868C796.747 424.581 796.074 424.334 795.11 424.129C794.153 423.924 793.391 423.678 792.823 423.391C792.263 423.104 791.846 422.762 791.572 422.366C791.306 421.969 791.172 421.498 791.172 420.951C791.172 420.042 791.555 419.272 792.321 418.644C793.093 418.015 794.078 417.7 795.274 417.7C796.532 417.7 797.55 418.025 798.33 418.674C799.116 419.324 799.509 420.154 799.509 421.166H797.602C797.602 420.646 797.379 420.199 796.935 419.823C796.498 419.447 795.944 419.259 795.274 419.259C794.583 419.259 794.043 419.409 793.654 419.71C793.264 420.011 793.069 420.404 793.069 420.889C793.069 421.347 793.25 421.692 793.613 421.925C793.975 422.157 794.628 422.379 795.571 422.591C796.521 422.803 797.291 423.056 797.878 423.35C798.466 423.644 798.9 424 799.181 424.417C799.468 424.827 799.611 425.329 799.611 425.924C799.611 426.915 799.215 427.711 798.422 428.313C797.629 428.908 796.6 429.205 795.335 429.205C794.447 429.205 793.661 429.048 792.977 428.733C792.293 428.419 791.757 427.981 791.367 427.421C790.984 426.854 790.793 426.242 790.793 425.585H792.69C792.724 426.221 792.977 426.727 793.449 427.103C793.927 427.472 794.556 427.657 795.335 427.657C796.053 427.657 796.627 427.513 797.058 427.226C797.496 426.932 797.714 426.542 797.714 426.057ZM804.144 429H802.247V417.905H804.144V429ZM802.093 414.962C802.093 414.655 802.185 414.395 802.37 414.183C802.561 413.971 802.841 413.865 803.21 413.865C803.58 413.865 803.86 413.971 804.051 414.183C804.243 414.395 804.338 414.655 804.338 414.962C804.338 415.27 804.243 415.526 804.051 415.731C803.86 415.937 803.58 416.039 803.21 416.039C802.841 416.039 802.561 415.937 802.37 415.731C802.185 415.526 802.093 415.27 802.093 414.962ZM812.552 419.607C812.265 419.56 811.954 419.536 811.619 419.536C810.375 419.536 809.53 420.065 809.086 421.125V429H807.189V417.905H809.035L809.065 419.187C809.688 418.196 810.569 417.7 811.711 417.7C812.08 417.7 812.36 417.748 812.552 417.844V419.607ZM820.745 429C820.635 428.781 820.546 428.392 820.478 427.831C819.596 428.747 818.543 429.205 817.32 429.205C816.226 429.205 815.327 428.897 814.623 428.282C813.926 427.66 813.577 426.874 813.577 425.924C813.577 424.769 814.015 423.873 814.89 423.237C815.771 422.595 817.009 422.273 818.602 422.273H820.447V421.402C820.447 420.739 820.249 420.212 819.853 419.823C819.456 419.426 818.872 419.228 818.099 419.228C817.422 419.228 816.855 419.399 816.397 419.741C815.939 420.083 815.71 420.496 815.71 420.981H813.803C813.803 420.428 813.998 419.895 814.387 419.382C814.784 418.862 815.317 418.452 815.987 418.151C816.664 417.851 817.405 417.7 818.212 417.7C819.49 417.7 820.492 418.021 821.216 418.664C821.941 419.3 822.317 420.178 822.344 421.299V426.406C822.344 427.424 822.474 428.234 822.734 428.836V429H820.745ZM817.597 427.554C818.191 427.554 818.755 427.4 819.289 427.093C819.822 426.785 820.208 426.385 820.447 425.893V423.617H818.96C816.636 423.617 815.474 424.297 815.474 425.657C815.474 426.252 815.672 426.717 816.069 427.052C816.465 427.387 816.975 427.554 817.597 427.554ZM836.987 426.057C836.987 425.544 836.792 425.148 836.402 424.868C836.02 424.581 835.346 424.334 834.382 424.129C833.425 423.924 832.663 423.678 832.096 423.391C831.535 423.104 831.118 422.762 830.845 422.366C830.578 421.969 830.445 421.498 830.445 420.951C830.445 420.042 830.828 419.272 831.593 418.644C832.366 418.015 833.35 417.7 834.546 417.7C835.804 417.7 836.823 418.025 837.602 418.674C838.388 419.324 838.781 420.154 838.781 421.166H836.874C836.874 420.646 836.652 420.199 836.208 419.823C835.77 419.447 835.216 419.259 834.546 419.259C833.856 419.259 833.316 419.409 832.926 419.71C832.537 420.011 832.342 420.404 832.342 420.889C832.342 421.347 832.523 421.692 832.885 421.925C833.248 422.157 833.9 422.379 834.844 422.591C835.794 422.803 836.563 423.056 837.151 423.35C837.739 423.644 838.173 424 838.453 424.417C838.74 424.827 838.884 425.329 838.884 425.924C838.884 426.915 838.487 427.711 837.694 428.313C836.901 428.908 835.873 429.205 834.608 429.205C833.719 429.205 832.933 429.048 832.25 428.733C831.566 428.419 831.029 427.981 830.64 427.421C830.257 426.854 830.065 426.242 830.065 425.585H831.962C831.997 426.221 832.25 426.727 832.721 427.103C833.2 427.472 833.829 427.657 834.608 427.657C835.326 427.657 835.9 427.513 836.331 427.226C836.768 426.932 836.987 426.542 836.987 426.057ZM845.959 429.205C844.455 429.205 843.231 428.713 842.288 427.729C841.345 426.737 840.873 425.415 840.873 423.76V423.412C840.873 422.311 841.082 421.33 841.499 420.469C841.922 419.601 842.51 418.924 843.262 418.438C844.021 417.946 844.841 417.7 845.723 417.7C847.166 417.7 848.287 418.175 849.086 419.125C849.886 420.076 850.286 421.436 850.286 423.207V423.996H842.77C842.797 425.09 843.115 425.975 843.724 426.652C844.339 427.322 845.118 427.657 846.062 427.657C846.731 427.657 847.299 427.52 847.764 427.247C848.229 426.973 848.635 426.611 848.984 426.16L850.143 427.062C849.213 428.491 847.818 429.205 845.959 429.205ZM845.723 419.259C844.958 419.259 844.315 419.539 843.795 420.1C843.276 420.653 842.955 421.433 842.832 422.438H848.389V422.294C848.334 421.33 848.075 420.585 847.61 420.059C847.145 419.525 846.516 419.259 845.723 419.259ZM859.34 427.903C858.602 428.771 857.519 429.205 856.09 429.205C854.907 429.205 854.005 428.863 853.383 428.18C852.768 427.489 852.457 426.471 852.45 425.124V417.905H854.347V425.073C854.347 426.754 855.03 427.595 856.397 427.595C857.847 427.595 858.811 427.055 859.289 425.975V417.905H861.186V429H859.381L859.34 427.903ZM870.538 426.057C870.538 425.544 870.343 425.148 869.953 424.868C869.57 424.581 868.897 424.334 867.933 424.129C866.976 423.924 866.214 423.678 865.646 423.391C865.086 423.104 864.669 422.762 864.396 422.366C864.129 421.969 863.996 421.498 863.996 420.951C863.996 420.042 864.378 419.272 865.144 418.644C865.917 418.015 866.901 417.7 868.097 417.7C869.355 417.7 870.374 418.025 871.153 418.674C871.939 419.324 872.332 420.154 872.332 421.166H870.425C870.425 420.646 870.203 420.199 869.758 419.823C869.321 419.447 868.767 419.259 868.097 419.259C867.407 419.259 866.867 419.409 866.477 419.71C866.087 420.011 865.893 420.404 865.893 420.889C865.893 421.347 866.074 421.692 866.436 421.925C866.798 422.157 867.451 422.379 868.395 422.591C869.345 422.803 870.114 423.056 870.702 423.35C871.29 423.644 871.724 424 872.004 424.417C872.291 424.827 872.435 425.329 872.435 425.924C872.435 426.915 872.038 427.711 871.245 428.313C870.452 428.908 869.423 429.205 868.159 429.205C867.27 429.205 866.484 429.048 865.8 428.733C865.117 428.419 864.58 427.981 864.19 427.421C863.808 426.854 863.616 426.242 863.616 425.585H865.513C865.547 426.221 865.8 426.727 866.272 427.103C866.75 427.472 867.379 427.657 868.159 427.657C868.876 427.657 869.451 427.513 869.881 427.226C870.319 426.932 870.538 426.542 870.538 426.057ZM879.653 423.36C879.653 421.658 880.057 420.291 880.863 419.259C881.67 418.22 882.726 417.7 884.032 417.7C885.331 417.7 886.359 418.145 887.118 419.033V413.25H889.015V429H887.272L887.18 427.811C886.421 428.74 885.365 429.205 884.011 429.205C882.726 429.205 881.677 428.679 880.863 427.626C880.057 426.573 879.653 425.199 879.653 423.504V423.36ZM881.55 423.576C881.55 424.833 881.81 425.818 882.33 426.529C882.849 427.24 883.567 427.595 884.483 427.595C885.686 427.595 886.564 427.055 887.118 425.975V420.879C886.551 419.833 885.679 419.31 884.503 419.31C883.574 419.31 882.849 419.669 882.33 420.387C881.81 421.104 881.55 422.167 881.55 423.576ZM898.818 429C898.708 428.781 898.62 428.392 898.551 427.831C897.669 428.747 896.617 429.205 895.393 429.205C894.299 429.205 893.4 428.897 892.696 428.282C891.999 427.66 891.65 426.874 891.65 425.924C891.65 424.769 892.088 423.873 892.963 423.237C893.845 422.595 895.082 422.273 896.675 422.273H898.521V421.402C898.521 420.739 898.322 420.212 897.926 419.823C897.529 419.426 896.945 419.228 896.172 419.228C895.496 419.228 894.928 419.399 894.47 419.741C894.012 420.083 893.783 420.496 893.783 420.981H891.876C891.876 420.428 892.071 419.895 892.46 419.382C892.857 418.862 893.39 418.452 894.06 418.151C894.737 417.851 895.479 417.7 896.285 417.7C897.563 417.7 898.565 418.021 899.29 418.664C900.014 419.3 900.39 420.178 900.417 421.299V426.406C900.417 427.424 900.547 428.234 900.807 428.836V429H898.818ZM895.67 427.554C896.265 427.554 896.829 427.4 897.362 427.093C897.895 426.785 898.281 426.385 898.521 425.893V423.617H897.034C894.709 423.617 893.547 424.297 893.547 425.657C893.547 426.252 893.746 426.717 894.142 427.052C894.539 427.387 895.048 427.554 895.67 427.554ZM902.93 423.36C902.93 421.658 903.333 420.291 904.14 419.259C904.946 418.22 906.002 417.7 907.308 417.7C908.607 417.7 909.636 418.145 910.395 419.033V413.25H912.292V429H910.548L910.456 427.811C909.697 428.74 908.641 429.205 907.288 429.205C906.002 429.205 904.953 428.679 904.14 427.626C903.333 426.573 902.93 425.199 902.93 423.504V423.36ZM904.827 423.576C904.827 424.833 905.086 425.818 905.606 426.529C906.125 427.24 906.843 427.595 907.759 427.595C908.962 427.595 909.841 427.055 910.395 425.975V420.879C909.827 419.833 908.956 419.31 907.78 419.31C906.85 419.31 906.125 419.669 905.606 420.387C905.086 421.104 904.827 422.167 904.827 423.576ZM914.742 423.35C914.742 422.263 914.954 421.286 915.378 420.417C915.809 419.549 916.403 418.879 917.162 418.408C917.928 417.936 918.799 417.7 919.777 417.7C921.288 417.7 922.508 418.223 923.438 419.269C924.374 420.315 924.842 421.706 924.842 423.442V423.576C924.842 424.656 924.634 425.626 924.217 426.488C923.807 427.342 923.215 428.009 922.443 428.487C921.677 428.966 920.795 429.205 919.797 429.205C918.293 429.205 917.073 428.682 916.137 427.636C915.207 426.59 914.742 425.206 914.742 423.483V423.35ZM916.649 423.576C916.649 424.806 916.933 425.794 917.5 426.539C918.075 427.284 918.84 427.657 919.797 427.657C920.761 427.657 921.527 427.281 922.094 426.529C922.662 425.77 922.945 424.71 922.945 423.35C922.945 422.133 922.655 421.149 922.074 420.397C921.5 419.638 920.734 419.259 919.777 419.259C918.84 419.259 918.085 419.631 917.511 420.376C916.937 421.122 916.649 422.188 916.649 423.576ZM933.681 426.057C933.681 425.544 933.486 425.148 933.097 424.868C932.714 424.581 932.041 424.334 931.077 424.129C930.12 423.924 929.357 423.678 928.79 423.391C928.229 423.104 927.812 422.762 927.539 422.366C927.272 421.969 927.139 421.498 927.139 420.951C927.139 420.042 927.522 419.272 928.288 418.644C929.06 418.015 930.044 417.7 931.241 417.7C932.499 417.7 933.517 418.025 934.296 418.674C935.083 419.324 935.476 420.154 935.476 421.166H933.568C933.568 420.646 933.346 420.199 932.902 419.823C932.464 419.447 931.911 419.259 931.241 419.259C930.55 419.259 930.01 419.409 929.621 419.71C929.231 420.011 929.036 420.404 929.036 420.889C929.036 421.347 929.217 421.692 929.58 421.925C929.942 422.157 930.595 422.379 931.538 422.591C932.488 422.803 933.257 423.056 933.845 423.35C934.433 423.644 934.867 424 935.147 424.417C935.435 424.827 935.578 425.329 935.578 425.924C935.578 426.915 935.182 427.711 934.389 428.313C933.596 428.908 932.567 429.205 931.302 429.205C930.414 429.205 929.627 429.048 928.944 428.733C928.26 428.419 927.724 427.981 927.334 427.421C926.951 426.854 926.76 426.242 926.76 425.585H928.657C928.691 426.221 928.944 426.727 929.416 427.103C929.894 427.472 930.523 427.657 931.302 427.657C932.02 427.657 932.594 427.513 933.025 427.226C933.462 426.932 933.681 426.542 933.681 426.057Z" fill="#323232"/>
<rect x="533.5" y="465.5" width="372" height="49" rx="3.5" fill="white" stroke="#E0E0E0"/>
<rect x="533.5" y="525.5" width="372" height="49" rx="3.5" fill="white" stroke="#E0E0E0"/>
<rect x="533.5" y="585.5" width="372" height="49" rx="3.5" fill="white" stroke="#E0E0E0"/>
<rect x="533" y="645" width="373" height="50" rx="4" fill="#2F80ED"/>
<path d="M661.062 496H659.555L653.828 487.234V496H652.32V484.625H653.828L659.57 493.43V484.625H661.062V496ZM663.117 491.695C663.117 490.867 663.279 490.122 663.602 489.461C663.93 488.799 664.383 488.289 664.961 487.93C665.544 487.57 666.208 487.391 666.953 487.391C668.104 487.391 669.034 487.789 669.742 488.586C670.456 489.383 670.812 490.443 670.812 491.766V491.867C670.812 492.69 670.654 493.43 670.336 494.086C670.023 494.737 669.573 495.245 668.984 495.609C668.401 495.974 667.729 496.156 666.969 496.156C665.823 496.156 664.893 495.758 664.18 494.961C663.471 494.164 663.117 493.109 663.117 491.797V491.695ZM664.57 491.867C664.57 492.805 664.786 493.557 665.219 494.125C665.656 494.693 666.24 494.977 666.969 494.977C667.703 494.977 668.286 494.69 668.719 494.117C669.151 493.539 669.367 492.732 669.367 491.695C669.367 490.768 669.146 490.018 668.703 489.445C668.266 488.867 667.682 488.578 666.953 488.578C666.24 488.578 665.664 488.862 665.227 489.43C664.789 489.997 664.57 490.81 664.57 491.867ZM673.984 487.547L674.023 488.484C674.643 487.755 675.479 487.391 676.531 487.391C677.714 487.391 678.518 487.844 678.945 488.75C679.227 488.344 679.591 488.016 680.039 487.766C680.492 487.516 681.026 487.391 681.641 487.391C683.495 487.391 684.438 488.372 684.469 490.336V496H683.023V490.422C683.023 489.818 682.885 489.367 682.609 489.07C682.333 488.768 681.87 488.617 681.219 488.617C680.682 488.617 680.237 488.779 679.883 489.102C679.529 489.419 679.323 489.849 679.266 490.391V496H677.812V490.461C677.812 489.232 677.211 488.617 676.008 488.617C675.06 488.617 674.411 489.021 674.062 489.828V496H672.617V487.547H673.984ZM690.164 496.156C689.018 496.156 688.086 495.781 687.367 495.031C686.648 494.276 686.289 493.268 686.289 492.008V491.742C686.289 490.904 686.448 490.156 686.766 489.5C687.089 488.839 687.536 488.323 688.109 487.953C688.688 487.578 689.312 487.391 689.984 487.391C691.083 487.391 691.938 487.753 692.547 488.477C693.156 489.201 693.461 490.237 693.461 491.586V492.188H687.734C687.755 493.021 687.997 493.695 688.461 494.211C688.93 494.721 689.523 494.977 690.242 494.977C690.753 494.977 691.185 494.872 691.539 494.664C691.893 494.456 692.203 494.18 692.469 493.836L693.352 494.523C692.643 495.612 691.581 496.156 690.164 496.156ZM689.984 488.578C689.401 488.578 688.911 488.792 688.516 489.219C688.12 489.641 687.875 490.234 687.781 491H692.016V490.891C691.974 490.156 691.776 489.589 691.422 489.188C691.068 488.781 690.589 488.578 689.984 488.578ZM699.055 491.383C699.055 490.206 699.211 489.076 699.523 487.992C699.841 486.909 700.312 485.924 700.938 485.039C701.562 484.154 702.211 483.529 702.883 483.164L703.18 484.117C702.419 484.701 701.794 485.591 701.305 486.789C700.82 487.987 700.555 489.328 700.508 490.812L700.5 491.477C700.5 493.487 700.867 495.232 701.602 496.711C702.044 497.596 702.57 498.289 703.18 498.789L702.883 499.672C702.19 499.286 701.529 498.641 700.898 497.734C699.669 495.964 699.055 493.846 699.055 491.383ZM713.555 490.68C713.555 491.794 713.367 492.768 712.992 493.602C712.617 494.43 712.086 495.062 711.398 495.5C710.711 495.938 709.909 496.156 708.992 496.156C708.096 496.156 707.302 495.938 706.609 495.5C705.917 495.057 705.378 494.43 704.992 493.617C704.612 492.799 704.417 491.854 704.406 490.781V489.961C704.406 488.867 704.596 487.901 704.977 487.062C705.357 486.224 705.893 485.583 706.586 485.141C707.284 484.693 708.081 484.469 708.977 484.469C709.888 484.469 710.69 484.69 711.383 485.133C712.081 485.57 712.617 486.208 712.992 487.047C713.367 487.88 713.555 488.852 713.555 489.961V490.68ZM712.062 489.945C712.062 488.596 711.792 487.562 711.25 486.844C710.708 486.12 709.951 485.758 708.977 485.758C708.029 485.758 707.281 486.12 706.734 486.844C706.193 487.562 705.914 488.562 705.898 489.844V490.68C705.898 491.987 706.172 493.016 706.719 493.766C707.271 494.51 708.029 494.883 708.992 494.883C709.961 494.883 710.711 494.531 711.242 493.828C711.773 493.12 712.047 492.107 712.062 490.789V489.945ZM722.734 491.867C722.734 493.159 722.438 494.198 721.844 494.984C721.25 495.766 720.453 496.156 719.453 496.156C718.385 496.156 717.56 495.779 716.977 495.023L716.906 496H715.578V484H717.023V488.477C717.607 487.753 718.411 487.391 719.438 487.391C720.464 487.391 721.268 487.779 721.852 488.555C722.44 489.331 722.734 490.393 722.734 491.742V491.867ZM721.289 491.703C721.289 490.719 721.099 489.958 720.719 489.422C720.339 488.885 719.792 488.617 719.078 488.617C718.125 488.617 717.44 489.06 717.023 489.945V493.602C717.466 494.487 718.156 494.93 719.094 494.93C719.786 494.93 720.326 494.661 720.711 494.125C721.096 493.589 721.289 492.781 721.289 491.703ZM728.648 488.844C728.43 488.807 728.193 488.789 727.938 488.789C726.99 488.789 726.346 489.193 726.008 490V496H724.562V487.547H725.969L725.992 488.523C726.466 487.768 727.138 487.391 728.008 487.391C728.289 487.391 728.503 487.427 728.648 487.5V488.844ZM731.555 496H730.109V487.547H731.555V496ZM729.992 485.305C729.992 485.07 730.062 484.872 730.203 484.711C730.349 484.549 730.562 484.469 730.844 484.469C731.125 484.469 731.339 484.549 731.484 484.711C731.63 484.872 731.703 485.07 731.703 485.305C731.703 485.539 731.63 485.734 731.484 485.891C731.339 486.047 731.125 486.125 730.844 486.125C730.562 486.125 730.349 486.047 730.203 485.891C730.062 485.734 729.992 485.539 729.992 485.305ZM733.531 491.703C733.531 490.385 733.836 489.339 734.445 488.562C735.055 487.781 735.862 487.391 736.867 487.391C737.898 487.391 738.703 487.755 739.281 488.484L739.352 487.547H740.672V495.797C740.672 496.891 740.346 497.753 739.695 498.383C739.049 499.013 738.18 499.328 737.086 499.328C736.477 499.328 735.88 499.198 735.297 498.938C734.714 498.677 734.268 498.32 733.961 497.867L734.711 497C735.331 497.766 736.089 498.148 736.984 498.148C737.688 498.148 738.234 497.951 738.625 497.555C739.021 497.159 739.219 496.602 739.219 495.883V495.156C738.641 495.823 737.852 496.156 736.852 496.156C735.862 496.156 735.06 495.758 734.445 494.961C733.836 494.164 733.531 493.078 733.531 491.703ZM734.984 491.867C734.984 492.82 735.18 493.57 735.57 494.117C735.961 494.659 736.508 494.93 737.211 494.93C738.122 494.93 738.792 494.516 739.219 493.688V489.828C738.776 489.021 738.112 488.617 737.227 488.617C736.523 488.617 735.974 488.891 735.578 489.438C735.182 489.984 734.984 490.794 734.984 491.867ZM748.078 496C747.995 495.833 747.927 495.536 747.875 495.109C747.203 495.807 746.401 496.156 745.469 496.156C744.635 496.156 743.951 495.922 743.414 495.453C742.883 494.979 742.617 494.38 742.617 493.656C742.617 492.776 742.951 492.094 743.617 491.609C744.289 491.12 745.232 490.875 746.445 490.875H747.852V490.211C747.852 489.706 747.701 489.305 747.398 489.008C747.096 488.706 746.651 488.555 746.062 488.555C745.547 488.555 745.115 488.685 744.766 488.945C744.417 489.206 744.242 489.521 744.242 489.891H742.789C742.789 489.469 742.938 489.062 743.234 488.672C743.536 488.276 743.943 487.964 744.453 487.734C744.969 487.505 745.534 487.391 746.148 487.391C747.122 487.391 747.885 487.635 748.438 488.125C748.99 488.609 749.276 489.279 749.297 490.133V494.023C749.297 494.799 749.396 495.417 749.594 495.875V496H748.078ZM745.68 494.898C746.133 494.898 746.562 494.781 746.969 494.547C747.375 494.312 747.669 494.008 747.852 493.633V491.898H746.719C744.948 491.898 744.062 492.417 744.062 493.453C744.062 493.906 744.214 494.26 744.516 494.516C744.818 494.771 745.206 494.898 745.68 494.898ZM753.523 485.5V487.547H755.102V488.664H753.523V493.906C753.523 494.245 753.594 494.5 753.734 494.672C753.875 494.839 754.115 494.922 754.453 494.922C754.62 494.922 754.849 494.891 755.141 494.828V496C754.76 496.104 754.391 496.156 754.031 496.156C753.385 496.156 752.898 495.961 752.57 495.57C752.242 495.18 752.078 494.625 752.078 493.906V488.664H750.539V487.547H752.078V485.5H753.523ZM756.258 491.695C756.258 490.867 756.419 490.122 756.742 489.461C757.07 488.799 757.523 488.289 758.102 487.93C758.685 487.57 759.349 487.391 760.094 487.391C761.245 487.391 762.174 487.789 762.883 488.586C763.596 489.383 763.953 490.443 763.953 491.766V491.867C763.953 492.69 763.794 493.43 763.477 494.086C763.164 494.737 762.714 495.245 762.125 495.609C761.542 495.974 760.87 496.156 760.109 496.156C758.964 496.156 758.034 495.758 757.32 494.961C756.612 494.164 756.258 493.109 756.258 491.797V491.695ZM757.711 491.867C757.711 492.805 757.927 493.557 758.359 494.125C758.797 494.693 759.38 494.977 760.109 494.977C760.844 494.977 761.427 494.69 761.859 494.117C762.292 493.539 762.508 492.732 762.508 491.695C762.508 490.768 762.286 490.018 761.844 489.445C761.406 488.867 760.823 488.578 760.094 488.578C759.38 488.578 758.805 488.862 758.367 489.43C757.93 489.997 757.711 490.81 757.711 491.867ZM760.75 484H762.5L760.406 486.297H759.242L760.75 484ZM769.852 488.844C769.633 488.807 769.396 488.789 769.141 488.789C768.193 488.789 767.549 489.193 767.211 490V496H765.766V487.547H767.172L767.195 488.523C767.669 487.768 768.341 487.391 769.211 487.391C769.492 487.391 769.706 487.427 769.852 487.5V488.844ZM772.758 496H771.312V487.547H772.758V496ZM771.195 485.305C771.195 485.07 771.266 484.872 771.406 484.711C771.552 484.549 771.766 484.469 772.047 484.469C772.328 484.469 772.542 484.549 772.688 484.711C772.833 484.872 772.906 485.07 772.906 485.305C772.906 485.539 772.833 485.734 772.688 485.891C772.542 486.047 772.328 486.125 772.047 486.125C771.766 486.125 771.552 486.047 771.406 485.891C771.266 485.734 771.195 485.539 771.195 485.305ZM774.695 491.695C774.695 490.867 774.857 490.122 775.18 489.461C775.508 488.799 775.961 488.289 776.539 487.93C777.122 487.57 777.786 487.391 778.531 487.391C779.682 487.391 780.612 487.789 781.32 488.586C782.034 489.383 782.391 490.443 782.391 491.766V491.867C782.391 492.69 782.232 493.43 781.914 494.086C781.602 494.737 781.151 495.245 780.562 495.609C779.979 495.974 779.307 496.156 778.547 496.156C777.401 496.156 776.471 495.758 775.758 494.961C775.049 494.164 774.695 493.109 774.695 491.797V491.695ZM776.148 491.867C776.148 492.805 776.365 493.557 776.797 494.125C777.234 494.693 777.818 494.977 778.547 494.977C779.281 494.977 779.865 494.69 780.297 494.117C780.729 493.539 780.945 492.732 780.945 491.695C780.945 490.768 780.724 490.018 780.281 489.445C779.844 488.867 779.26 488.578 778.531 488.578C777.818 488.578 777.242 488.862 776.805 489.43C776.367 489.997 776.148 490.81 776.148 491.867ZM787.539 491.461C787.539 492.622 787.385 493.737 787.078 494.805C786.776 495.867 786.31 496.849 785.68 497.75C785.055 498.651 784.398 499.292 783.711 499.672L783.406 498.789C784.208 498.174 784.852 497.221 785.336 495.93C785.826 494.633 786.076 493.195 786.086 491.617V491.367C786.086 490.273 785.971 489.258 785.742 488.32C785.513 487.378 785.193 486.534 784.781 485.789C784.375 485.044 783.917 484.464 783.406 484.047L783.711 483.164C784.398 483.544 785.052 484.18 785.672 485.07C786.297 485.961 786.763 486.943 787.07 488.016C787.383 489.089 787.539 490.237 787.539 491.461Z" fill="#B4B4B4"/>
<path d="M659.75 550.742H654.82V554.773H660.547V556H653.32V544.625H660.469V545.859H654.82V549.516H659.75V550.742ZM663.547 547.547L663.586 548.484C664.206 547.755 665.042 547.391 666.094 547.391C667.276 547.391 668.081 547.844 668.508 548.75C668.789 548.344 669.154 548.016 669.602 547.766C670.055 547.516 670.589 547.391 671.203 547.391C673.057 547.391 674 548.372 674.031 550.336V556H672.586V550.422C672.586 549.818 672.448 549.367 672.172 549.07C671.896 548.768 671.432 548.617 670.781 548.617C670.245 548.617 669.799 548.779 669.445 549.102C669.091 549.419 668.885 549.849 668.828 550.391V556H667.375V550.461C667.375 549.232 666.773 548.617 665.57 548.617C664.622 548.617 663.974 549.021 663.625 549.828V556H662.18V547.547H663.547ZM681.438 556C681.354 555.833 681.286 555.536 681.234 555.109C680.562 555.807 679.76 556.156 678.828 556.156C677.995 556.156 677.31 555.922 676.773 555.453C676.242 554.979 675.977 554.38 675.977 553.656C675.977 552.776 676.31 552.094 676.977 551.609C677.648 551.12 678.591 550.875 679.805 550.875H681.211V550.211C681.211 549.706 681.06 549.305 680.758 549.008C680.456 548.706 680.01 548.555 679.422 548.555C678.906 548.555 678.474 548.685 678.125 548.945C677.776 549.206 677.602 549.521 677.602 549.891H676.148C676.148 549.469 676.297 549.062 676.594 548.672C676.896 548.276 677.302 547.964 677.812 547.734C678.328 547.505 678.893 547.391 679.508 547.391C680.482 547.391 681.245 547.635 681.797 548.125C682.349 548.609 682.635 549.279 682.656 550.133V554.023C682.656 554.799 682.755 555.417 682.953 555.875V556H681.438ZM679.039 554.898C679.492 554.898 679.922 554.781 680.328 554.547C680.734 554.312 681.029 554.008 681.211 553.633V551.898H680.078C678.307 551.898 677.422 552.417 677.422 553.453C677.422 553.906 677.573 554.26 677.875 554.516C678.177 554.771 678.565 554.898 679.039 554.898ZM686.492 556H685.047V547.547H686.492V556ZM684.93 545.305C684.93 545.07 685 544.872 685.141 544.711C685.286 544.549 685.5 544.469 685.781 544.469C686.062 544.469 686.276 544.549 686.422 544.711C686.568 544.872 686.641 545.07 686.641 545.305C686.641 545.539 686.568 545.734 686.422 545.891C686.276 546.047 686.062 546.125 685.781 546.125C685.5 546.125 685.286 546.047 685.141 545.891C685 545.734 684.93 545.539 684.93 545.305ZM690.383 556H688.938V544H690.383V556ZM696.617 551.383C696.617 550.206 696.773 549.076 697.086 547.992C697.404 546.909 697.875 545.924 698.5 545.039C699.125 544.154 699.773 543.529 700.445 543.164L700.742 544.117C699.982 544.701 699.357 545.591 698.867 546.789C698.383 547.987 698.117 549.328 698.07 550.812L698.062 551.477C698.062 553.487 698.43 555.232 699.164 556.711C699.607 557.596 700.133 558.289 700.742 558.789L700.445 559.672C699.753 559.286 699.091 558.641 698.461 557.734C697.232 555.964 696.617 553.846 696.617 551.383ZM711.117 550.68C711.117 551.794 710.93 552.768 710.555 553.602C710.18 554.43 709.648 555.062 708.961 555.5C708.273 555.938 707.471 556.156 706.555 556.156C705.659 556.156 704.865 555.938 704.172 555.5C703.479 555.057 702.94 554.43 702.555 553.617C702.174 552.799 701.979 551.854 701.969 550.781V549.961C701.969 548.867 702.159 547.901 702.539 547.062C702.919 546.224 703.456 545.583 704.148 545.141C704.846 544.693 705.643 544.469 706.539 544.469C707.451 544.469 708.253 544.69 708.945 545.133C709.643 545.57 710.18 546.208 710.555 547.047C710.93 547.88 711.117 548.852 711.117 549.961V550.68ZM709.625 549.945C709.625 548.596 709.354 547.562 708.812 546.844C708.271 546.12 707.513 545.758 706.539 545.758C705.591 545.758 704.844 546.12 704.297 546.844C703.755 547.562 703.477 548.562 703.461 549.844V550.68C703.461 551.987 703.734 553.016 704.281 553.766C704.833 554.51 705.591 554.883 706.555 554.883C707.523 554.883 708.273 554.531 708.805 553.828C709.336 553.12 709.609 552.107 709.625 550.789V549.945ZM720.297 551.867C720.297 553.159 720 554.198 719.406 554.984C718.812 555.766 718.016 556.156 717.016 556.156C715.948 556.156 715.122 555.779 714.539 555.023L714.469 556H713.141V544H714.586V548.477C715.169 547.753 715.974 547.391 717 547.391C718.026 547.391 718.831 547.779 719.414 548.555C720.003 549.331 720.297 550.393 720.297 551.742V551.867ZM718.852 551.703C718.852 550.719 718.661 549.958 718.281 549.422C717.901 548.885 717.354 548.617 716.641 548.617C715.688 548.617 715.003 549.06 714.586 549.945V553.602C715.029 554.487 715.719 554.93 716.656 554.93C717.349 554.93 717.888 554.661 718.273 554.125C718.659 553.589 718.852 552.781 718.852 551.703ZM726.211 548.844C725.992 548.807 725.755 548.789 725.5 548.789C724.552 548.789 723.909 549.193 723.57 550V556H722.125V547.547H723.531L723.555 548.523C724.029 547.768 724.701 547.391 725.57 547.391C725.852 547.391 726.065 547.427 726.211 547.5V548.844ZM729.117 556H727.672V547.547H729.117V556ZM727.555 545.305C727.555 545.07 727.625 544.872 727.766 544.711C727.911 544.549 728.125 544.469 728.406 544.469C728.688 544.469 728.901 544.549 729.047 544.711C729.193 544.872 729.266 545.07 729.266 545.305C729.266 545.539 729.193 545.734 729.047 545.891C728.901 546.047 728.688 546.125 728.406 546.125C728.125 546.125 727.911 546.047 727.766 545.891C727.625 545.734 727.555 545.539 727.555 545.305ZM731.094 551.703C731.094 550.385 731.398 549.339 732.008 548.562C732.617 547.781 733.424 547.391 734.43 547.391C735.461 547.391 736.266 547.755 736.844 548.484L736.914 547.547H738.234V555.797C738.234 556.891 737.909 557.753 737.258 558.383C736.612 559.013 735.742 559.328 734.648 559.328C734.039 559.328 733.443 559.198 732.859 558.938C732.276 558.677 731.831 558.32 731.523 557.867L732.273 557C732.893 557.766 733.651 558.148 734.547 558.148C735.25 558.148 735.797 557.951 736.188 557.555C736.583 557.159 736.781 556.602 736.781 555.883V555.156C736.203 555.823 735.414 556.156 734.414 556.156C733.424 556.156 732.622 555.758 732.008 554.961C731.398 554.164 731.094 553.078 731.094 551.703ZM732.547 551.867C732.547 552.82 732.742 553.57 733.133 554.117C733.523 554.659 734.07 554.93 734.773 554.93C735.685 554.93 736.354 554.516 736.781 553.688V549.828C736.339 549.021 735.674 548.617 734.789 548.617C734.086 548.617 733.536 548.891 733.141 549.438C732.745 549.984 732.547 550.794 732.547 551.867ZM745.641 556C745.557 555.833 745.49 555.536 745.438 555.109C744.766 555.807 743.964 556.156 743.031 556.156C742.198 556.156 741.513 555.922 740.977 555.453C740.445 554.979 740.18 554.38 740.18 553.656C740.18 552.776 740.513 552.094 741.18 551.609C741.852 551.12 742.794 550.875 744.008 550.875H745.414V550.211C745.414 549.706 745.263 549.305 744.961 549.008C744.659 548.706 744.214 548.555 743.625 548.555C743.109 548.555 742.677 548.685 742.328 548.945C741.979 549.206 741.805 549.521 741.805 549.891H740.352C740.352 549.469 740.5 549.062 740.797 548.672C741.099 548.276 741.505 547.964 742.016 547.734C742.531 547.505 743.096 547.391 743.711 547.391C744.685 547.391 745.448 547.635 746 548.125C746.552 548.609 746.839 549.279 746.859 550.133V554.023C746.859 554.799 746.958 555.417 747.156 555.875V556H745.641ZM743.242 554.898C743.695 554.898 744.125 554.781 744.531 554.547C744.938 554.312 745.232 554.008 745.414 553.633V551.898H744.281C742.51 551.898 741.625 552.417 741.625 553.453C741.625 553.906 741.776 554.26 742.078 554.516C742.38 554.771 742.768 554.898 743.242 554.898ZM751.086 545.5V547.547H752.664V548.664H751.086V553.906C751.086 554.245 751.156 554.5 751.297 554.672C751.438 554.839 751.677 554.922 752.016 554.922C752.182 554.922 752.411 554.891 752.703 554.828V556C752.323 556.104 751.953 556.156 751.594 556.156C750.948 556.156 750.461 555.961 750.133 555.57C749.805 555.18 749.641 554.625 749.641 553.906V548.664H748.102V547.547H749.641V545.5H751.086ZM753.82 551.695C753.82 550.867 753.982 550.122 754.305 549.461C754.633 548.799 755.086 548.289 755.664 547.93C756.247 547.57 756.911 547.391 757.656 547.391C758.807 547.391 759.737 547.789 760.445 548.586C761.159 549.383 761.516 550.443 761.516 551.766V551.867C761.516 552.69 761.357 553.43 761.039 554.086C760.727 554.737 760.276 555.245 759.688 555.609C759.104 555.974 758.432 556.156 757.672 556.156C756.526 556.156 755.596 555.758 754.883 554.961C754.174 554.164 753.82 553.109 753.82 551.797V551.695ZM755.273 551.867C755.273 552.805 755.49 553.557 755.922 554.125C756.359 554.693 756.943 554.977 757.672 554.977C758.406 554.977 758.99 554.69 759.422 554.117C759.854 553.539 760.07 552.732 760.07 551.695C760.07 550.768 759.849 550.018 759.406 549.445C758.969 548.867 758.385 548.578 757.656 548.578C756.943 548.578 756.367 548.862 755.93 549.43C755.492 549.997 755.273 550.81 755.273 551.867ZM758.312 544H760.062L757.969 546.297H756.805L758.312 544ZM767.414 548.844C767.195 548.807 766.958 548.789 766.703 548.789C765.755 548.789 765.112 549.193 764.773 550V556H763.328V547.547H764.734L764.758 548.523C765.232 547.768 765.904 547.391 766.773 547.391C767.055 547.391 767.268 547.427 767.414 547.5V548.844ZM770.32 556H768.875V547.547H770.32V556ZM768.758 545.305C768.758 545.07 768.828 544.872 768.969 544.711C769.115 544.549 769.328 544.469 769.609 544.469C769.891 544.469 770.104 544.549 770.25 544.711C770.396 544.872 770.469 545.07 770.469 545.305C770.469 545.539 770.396 545.734 770.25 545.891C770.104 546.047 769.891 546.125 769.609 546.125C769.328 546.125 769.115 546.047 768.969 545.891C768.828 545.734 768.758 545.539 768.758 545.305ZM772.258 551.695C772.258 550.867 772.419 550.122 772.742 549.461C773.07 548.799 773.523 548.289 774.102 547.93C774.685 547.57 775.349 547.391 776.094 547.391C777.245 547.391 778.174 547.789 778.883 548.586C779.596 549.383 779.953 550.443 779.953 551.766V551.867C779.953 552.69 779.794 553.43 779.477 554.086C779.164 554.737 778.714 555.245 778.125 555.609C777.542 555.974 776.87 556.156 776.109 556.156C774.964 556.156 774.034 555.758 773.32 554.961C772.612 554.164 772.258 553.109 772.258 551.797V551.695ZM773.711 551.867C773.711 552.805 773.927 553.557 774.359 554.125C774.797 554.693 775.38 554.977 776.109 554.977C776.844 554.977 777.427 554.69 777.859 554.117C778.292 553.539 778.508 552.732 778.508 551.695C778.508 550.768 778.286 550.018 777.844 549.445C777.406 548.867 776.823 548.578 776.094 548.578C775.38 548.578 774.805 548.862 774.367 549.43C773.93 549.997 773.711 550.81 773.711 551.867ZM785.102 551.461C785.102 552.622 784.948 553.737 784.641 554.805C784.339 555.867 783.872 556.849 783.242 557.75C782.617 558.651 781.961 559.292 781.273 559.672L780.969 558.789C781.771 558.174 782.414 557.221 782.898 555.93C783.388 554.633 783.638 553.195 783.648 551.617V551.367C783.648 550.273 783.534 549.258 783.305 548.32C783.076 547.378 782.755 546.534 782.344 545.789C781.938 545.044 781.479 544.464 780.969 544.047L781.273 543.164C781.961 543.544 782.615 544.18 783.234 545.07C783.859 545.961 784.326 546.943 784.633 548.016C784.945 549.089 785.102 550.237 785.102 551.461Z" fill="#B4B4B4"/>
<path d="M589.828 614.773H595.219V616H588.32V604.625H589.828V614.773ZM598.273 616H596.828V607.547H598.273V616ZM596.711 605.305C596.711 605.07 596.781 604.872 596.922 604.711C597.068 604.549 597.281 604.469 597.562 604.469C597.844 604.469 598.057 604.549 598.203 604.711C598.349 604.872 598.422 605.07 598.422 605.305C598.422 605.539 598.349 605.734 598.203 605.891C598.057 606.047 597.844 606.125 597.562 606.125C597.281 606.125 597.068 606.047 596.922 605.891C596.781 605.734 596.711 605.539 596.711 605.305ZM601.961 607.547L602.008 608.609C602.654 607.797 603.497 607.391 604.539 607.391C606.326 607.391 607.227 608.398 607.242 610.414V616H605.797V610.406C605.792 609.797 605.651 609.346 605.375 609.055C605.104 608.763 604.68 608.617 604.102 608.617C603.633 608.617 603.221 608.742 602.867 608.992C602.513 609.242 602.237 609.57 602.039 609.977V616H600.594V607.547H601.961ZM611.781 612.086L610.875 613.031V616H609.43V604H610.875V611.258L611.648 610.328L614.281 607.547H616.039L612.75 611.078L616.422 616H614.727L611.781 612.086ZM628.641 611.867C628.641 613.154 628.346 614.19 627.758 614.977C627.169 615.763 626.372 616.156 625.367 616.156C624.341 616.156 623.534 615.831 622.945 615.18V619.25H621.5V607.547H622.82L622.891 608.484C623.479 607.755 624.297 607.391 625.344 607.391C626.359 607.391 627.161 607.773 627.75 608.539C628.344 609.305 628.641 610.37 628.641 611.734V611.867ZM627.195 611.703C627.195 610.75 626.992 609.997 626.586 609.445C626.18 608.893 625.622 608.617 624.914 608.617C624.039 608.617 623.383 609.005 622.945 609.781V613.82C623.378 614.591 624.039 614.977 624.93 614.977C625.622 614.977 626.172 614.703 626.578 614.156C626.99 613.604 627.195 612.786 627.195 611.703ZM635.703 616C635.62 615.833 635.552 615.536 635.5 615.109C634.828 615.807 634.026 616.156 633.094 616.156C632.26 616.156 631.576 615.922 631.039 615.453C630.508 614.979 630.242 614.38 630.242 613.656C630.242 612.776 630.576 612.094 631.242 611.609C631.914 611.12 632.857 610.875 634.07 610.875H635.477V610.211C635.477 609.706 635.326 609.305 635.023 609.008C634.721 608.706 634.276 608.555 633.688 608.555C633.172 608.555 632.74 608.685 632.391 608.945C632.042 609.206 631.867 609.521 631.867 609.891H630.414C630.414 609.469 630.562 609.062 630.859 608.672C631.161 608.276 631.568 607.964 632.078 607.734C632.594 607.505 633.159 607.391 633.773 607.391C634.747 607.391 635.51 607.635 636.062 608.125C636.615 608.609 636.901 609.279 636.922 610.133V614.023C636.922 614.799 637.021 615.417 637.219 615.875V616H635.703ZM633.305 614.898C633.758 614.898 634.188 614.781 634.594 614.547C635 614.312 635.294 614.008 635.477 613.633V611.898H634.344C632.573 611.898 631.688 612.417 631.688 613.453C631.688 613.906 631.839 614.26 632.141 614.516C632.443 614.771 632.831 614.898 633.305 614.898ZM643.273 608.844C643.055 608.807 642.818 608.789 642.562 608.789C641.615 608.789 640.971 609.193 640.633 610V616H639.188V607.547H640.594L640.617 608.523C641.091 607.768 641.763 607.391 642.633 607.391C642.914 607.391 643.128 607.427 643.273 607.5V608.844ZM649.516 616C649.432 615.833 649.365 615.536 649.312 615.109C648.641 615.807 647.839 616.156 646.906 616.156C646.073 616.156 645.388 615.922 644.852 615.453C644.32 614.979 644.055 614.38 644.055 613.656C644.055 612.776 644.388 612.094 645.055 611.609C645.727 611.12 646.669 610.875 647.883 610.875H649.289V610.211C649.289 609.706 649.138 609.305 648.836 609.008C648.534 608.706 648.089 608.555 647.5 608.555C646.984 608.555 646.552 608.685 646.203 608.945C645.854 609.206 645.68 609.521 645.68 609.891H644.227C644.227 609.469 644.375 609.062 644.672 608.672C644.974 608.276 645.38 607.964 645.891 607.734C646.406 607.505 646.971 607.391 647.586 607.391C648.56 607.391 649.323 607.635 649.875 608.125C650.427 608.609 650.714 609.279 650.734 610.133V614.023C650.734 614.799 650.833 615.417 651.031 615.875V616H649.516ZM647.117 614.898C647.57 614.898 648 614.781 648.406 614.547C648.812 614.312 649.107 614.008 649.289 613.633V611.898H648.156C646.385 611.898 645.5 612.417 645.5 613.453C645.5 613.906 645.651 614.26 645.953 614.516C646.255 614.771 646.643 614.898 647.117 614.898ZM658.539 616H657.094V607.547H658.539V616ZM656.977 605.305C656.977 605.07 657.047 604.872 657.188 604.711C657.333 604.549 657.547 604.469 657.828 604.469C658.109 604.469 658.323 604.549 658.469 604.711C658.615 604.872 658.688 605.07 658.688 605.305C658.688 605.539 658.615 605.734 658.469 605.891C658.323 606.047 658.109 606.125 657.828 606.125C657.547 606.125 657.333 606.047 657.188 605.891C657.047 605.734 656.977 605.539 656.977 605.305ZM662.219 607.547L662.258 608.484C662.878 607.755 663.714 607.391 664.766 607.391C665.948 607.391 666.753 607.844 667.18 608.75C667.461 608.344 667.826 608.016 668.273 607.766C668.727 607.516 669.26 607.391 669.875 607.391C671.729 607.391 672.672 608.372 672.703 610.336V616H671.258V610.422C671.258 609.818 671.12 609.367 670.844 609.07C670.568 608.768 670.104 608.617 669.453 608.617C668.917 608.617 668.471 608.779 668.117 609.102C667.763 609.419 667.557 609.849 667.5 610.391V616H666.047V610.461C666.047 609.232 665.445 608.617 664.242 608.617C663.294 608.617 662.646 609.021 662.297 609.828V616H660.852V607.547H662.219ZM680.109 616C680.026 615.833 679.958 615.536 679.906 615.109C679.234 615.807 678.432 616.156 677.5 616.156C676.667 616.156 675.982 615.922 675.445 615.453C674.914 614.979 674.648 614.38 674.648 613.656C674.648 612.776 674.982 612.094 675.648 611.609C676.32 611.12 677.263 610.875 678.477 610.875H679.883V610.211C679.883 609.706 679.732 609.305 679.43 609.008C679.128 608.706 678.682 608.555 678.094 608.555C677.578 608.555 677.146 608.685 676.797 608.945C676.448 609.206 676.273 609.521 676.273 609.891H674.82C674.82 609.469 674.969 609.062 675.266 608.672C675.568 608.276 675.974 607.964 676.484 607.734C677 607.505 677.565 607.391 678.18 607.391C679.154 607.391 679.917 607.635 680.469 608.125C681.021 608.609 681.307 609.279 681.328 610.133V614.023C681.328 614.799 681.427 615.417 681.625 615.875V616H680.109ZM677.711 614.898C678.164 614.898 678.594 614.781 679 614.547C679.406 614.312 679.701 614.008 679.883 613.633V611.898H678.75C676.979 611.898 676.094 612.417 676.094 613.453C676.094 613.906 676.245 614.26 676.547 614.516C676.849 614.771 677.237 614.898 677.711 614.898ZM683.25 611.703C683.25 610.385 683.555 609.339 684.164 608.562C684.773 607.781 685.581 607.391 686.586 607.391C687.617 607.391 688.422 607.755 689 608.484L689.07 607.547H690.391V615.797C690.391 616.891 690.065 617.753 689.414 618.383C688.768 619.013 687.898 619.328 686.805 619.328C686.195 619.328 685.599 619.198 685.016 618.938C684.432 618.677 683.987 618.32 683.68 617.867L684.43 617C685.049 617.766 685.807 618.148 686.703 618.148C687.406 618.148 687.953 617.951 688.344 617.555C688.74 617.159 688.938 616.602 688.938 615.883V615.156C688.359 615.823 687.57 616.156 686.57 616.156C685.581 616.156 684.779 615.758 684.164 614.961C683.555 614.164 683.25 613.078 683.25 611.703ZM684.703 611.867C684.703 612.82 684.898 613.57 685.289 614.117C685.68 614.659 686.227 614.93 686.93 614.93C687.841 614.93 688.51 614.516 688.938 613.688V609.828C688.495 609.021 687.831 608.617 686.945 608.617C686.242 608.617 685.693 608.891 685.297 609.438C684.901 609.984 684.703 610.794 684.703 611.867ZM696.086 616.156C694.94 616.156 694.008 615.781 693.289 615.031C692.57 614.276 692.211 613.268 692.211 612.008V611.742C692.211 610.904 692.37 610.156 692.688 609.5C693.01 608.839 693.458 608.323 694.031 607.953C694.609 607.578 695.234 607.391 695.906 607.391C697.005 607.391 697.859 607.753 698.469 608.477C699.078 609.201 699.383 610.237 699.383 611.586V612.188H693.656C693.677 613.021 693.919 613.695 694.383 614.211C694.852 614.721 695.445 614.977 696.164 614.977C696.674 614.977 697.107 614.872 697.461 614.664C697.815 614.456 698.125 614.18 698.391 613.836L699.273 614.523C698.565 615.612 697.503 616.156 696.086 616.156ZM695.906 608.578C695.323 608.578 694.833 608.792 694.438 609.219C694.042 609.641 693.797 610.234 693.703 611H697.938V610.891C697.896 610.156 697.698 609.589 697.344 609.188C696.99 608.781 696.51 608.578 695.906 608.578ZM702.422 607.547L702.461 608.484C703.081 607.755 703.917 607.391 704.969 607.391C706.151 607.391 706.956 607.844 707.383 608.75C707.664 608.344 708.029 608.016 708.477 607.766C708.93 607.516 709.464 607.391 710.078 607.391C711.932 607.391 712.875 608.372 712.906 610.336V616H711.461V610.422C711.461 609.818 711.323 609.367 711.047 609.07C710.771 608.768 710.307 608.617 709.656 608.617C709.12 608.617 708.674 608.779 708.32 609.102C707.966 609.419 707.76 609.849 707.703 610.391V616H706.25V610.461C706.25 609.232 705.648 608.617 704.445 608.617C703.497 608.617 702.849 609.021 702.5 609.828V616H701.055V607.547H702.422ZM718.711 611.703C718.711 610.406 719.018 609.365 719.633 608.578C720.247 607.786 721.052 607.391 722.047 607.391C723.036 607.391 723.82 607.729 724.398 608.406V604H725.844V616H724.516L724.445 615.094C723.867 615.802 723.062 616.156 722.031 616.156C721.052 616.156 720.253 615.755 719.633 614.953C719.018 614.151 718.711 613.104 718.711 611.812V611.703ZM720.156 611.867C720.156 612.826 720.354 613.576 720.75 614.117C721.146 614.659 721.693 614.93 722.391 614.93C723.307 614.93 723.977 614.518 724.398 613.695V609.812C723.966 609.016 723.302 608.617 722.406 608.617C721.698 608.617 721.146 608.891 720.75 609.438C720.354 609.984 720.156 610.794 720.156 611.867ZM731.602 616.156C730.456 616.156 729.523 615.781 728.805 615.031C728.086 614.276 727.727 613.268 727.727 612.008V611.742C727.727 610.904 727.885 610.156 728.203 609.5C728.526 608.839 728.974 608.323 729.547 607.953C730.125 607.578 730.75 607.391 731.422 607.391C732.521 607.391 733.375 607.753 733.984 608.477C734.594 609.201 734.898 610.237 734.898 611.586V612.188H729.172C729.193 613.021 729.435 613.695 729.898 614.211C730.367 614.721 730.961 614.977 731.68 614.977C732.19 614.977 732.622 614.872 732.977 614.664C733.331 614.456 733.641 614.18 733.906 613.836L734.789 614.523C734.081 615.612 733.018 616.156 731.602 616.156ZM731.422 608.578C730.839 608.578 730.349 608.792 729.953 609.219C729.557 609.641 729.312 610.234 729.219 611H733.453V610.891C733.411 610.156 733.214 609.589 732.859 609.188C732.505 608.781 732.026 608.578 731.422 608.578ZM747.688 611.867C747.688 613.154 747.393 614.19 746.805 614.977C746.216 615.763 745.419 616.156 744.414 616.156C743.388 616.156 742.581 615.831 741.992 615.18V619.25H740.547V607.547H741.867L741.938 608.484C742.526 607.755 743.344 607.391 744.391 607.391C745.406 607.391 746.208 607.773 746.797 608.539C747.391 609.305 747.688 610.37 747.688 611.734V611.867ZM746.242 611.703C746.242 610.75 746.039 609.997 745.633 609.445C745.227 608.893 744.669 608.617 743.961 608.617C743.086 608.617 742.43 609.005 741.992 609.781V613.82C742.424 614.591 743.086 614.977 743.977 614.977C744.669 614.977 745.219 614.703 745.625 614.156C746.036 613.604 746.242 612.786 746.242 611.703ZM753.039 616.156C751.893 616.156 750.961 615.781 750.242 615.031C749.523 614.276 749.164 613.268 749.164 612.008V611.742C749.164 610.904 749.323 610.156 749.641 609.5C749.964 608.839 750.411 608.323 750.984 607.953C751.562 607.578 752.188 607.391 752.859 607.391C753.958 607.391 754.812 607.753 755.422 608.477C756.031 609.201 756.336 610.237 756.336 611.586V612.188H750.609C750.63 613.021 750.872 613.695 751.336 614.211C751.805 614.721 752.398 614.977 753.117 614.977C753.628 614.977 754.06 614.872 754.414 614.664C754.768 614.456 755.078 614.18 755.344 613.836L756.227 614.523C755.518 615.612 754.456 616.156 753.039 616.156ZM752.859 608.578C752.276 608.578 751.786 608.792 751.391 609.219C750.995 609.641 750.75 610.234 750.656 611H754.891V610.891C754.849 610.156 754.651 609.589 754.297 609.188C753.943 608.781 753.464 608.578 752.859 608.578ZM762.102 608.844C761.883 608.807 761.646 608.789 761.391 608.789C760.443 608.789 759.799 609.193 759.461 610V616H758.016V607.547H759.422L759.445 608.523C759.919 607.768 760.591 607.391 761.461 607.391C761.742 607.391 761.956 607.427 762.102 607.5V608.844ZM763.922 616V608.664H762.586V607.547H763.922V606.828C763.922 605.885 764.19 605.151 764.727 604.625C765.268 604.099 766.031 603.836 767.016 603.836C767.599 603.836 768.336 603.995 769.227 604.312L768.984 605.531C768.333 605.271 767.714 605.141 767.125 605.141C766.505 605.141 766.057 605.281 765.781 605.562C765.51 605.839 765.375 606.255 765.375 606.812V607.547H767.102V608.664H765.375V616H763.922ZM769.945 616H768.492V607.547H769.945V616ZM773.867 616H772.422V604H773.867V616ZM780.102 611.383C780.102 610.206 780.258 609.076 780.57 607.992C780.888 606.909 781.359 605.924 781.984 605.039C782.609 604.154 783.258 603.529 783.93 603.164L784.227 604.117C783.466 604.701 782.841 605.591 782.352 606.789C781.867 607.987 781.602 609.328 781.555 610.812L781.547 611.477C781.547 613.487 781.914 615.232 782.648 616.711C783.091 617.596 783.617 618.289 784.227 618.789L783.93 619.672C783.237 619.286 782.576 618.641 781.945 617.734C780.716 615.964 780.102 613.846 780.102 611.383ZM794.602 610.68C794.602 611.794 794.414 612.768 794.039 613.602C793.664 614.43 793.133 615.062 792.445 615.5C791.758 615.938 790.956 616.156 790.039 616.156C789.143 616.156 788.349 615.938 787.656 615.5C786.964 615.057 786.424 614.43 786.039 613.617C785.659 612.799 785.464 611.854 785.453 610.781V609.961C785.453 608.867 785.643 607.901 786.023 607.062C786.404 606.224 786.94 605.583 787.633 605.141C788.331 604.693 789.128 604.469 790.023 604.469C790.935 604.469 791.737 604.69 792.43 605.133C793.128 605.57 793.664 606.208 794.039 607.047C794.414 607.88 794.602 608.852 794.602 609.961V610.68ZM793.109 609.945C793.109 608.596 792.839 607.562 792.297 606.844C791.755 606.12 790.997 605.758 790.023 605.758C789.076 605.758 788.328 606.12 787.781 606.844C787.24 607.562 786.961 608.562 786.945 609.844V610.68C786.945 611.987 787.219 613.016 787.766 613.766C788.318 614.51 789.076 614.883 790.039 614.883C791.008 614.883 791.758 614.531 792.289 613.828C792.82 613.12 793.094 612.107 793.109 610.789V609.945ZM803.766 611.867C803.766 613.154 803.471 614.19 802.883 614.977C802.294 615.763 801.497 616.156 800.492 616.156C799.466 616.156 798.659 615.831 798.07 615.18V619.25H796.625V607.547H797.945L798.016 608.484C798.604 607.755 799.422 607.391 800.469 607.391C801.484 607.391 802.286 607.773 802.875 608.539C803.469 609.305 803.766 610.37 803.766 611.734V611.867ZM802.32 611.703C802.32 610.75 802.117 609.997 801.711 609.445C801.305 608.893 800.747 608.617 800.039 608.617C799.164 608.617 798.508 609.005 798.07 609.781V613.82C798.503 614.591 799.164 614.977 800.055 614.977C800.747 614.977 801.297 614.703 801.703 614.156C802.115 613.604 802.32 612.786 802.32 611.703ZM809 614.977C809.516 614.977 809.966 614.82 810.352 614.508C810.737 614.195 810.951 613.805 810.992 613.336H812.359C812.333 613.82 812.167 614.281 811.859 614.719C811.552 615.156 811.141 615.505 810.625 615.766C810.115 616.026 809.573 616.156 809 616.156C807.849 616.156 806.932 615.773 806.25 615.008C805.573 614.237 805.234 613.185 805.234 611.852V611.609C805.234 610.786 805.385 610.055 805.688 609.414C805.99 608.773 806.422 608.276 806.984 607.922C807.552 607.568 808.221 607.391 808.992 607.391C809.94 607.391 810.727 607.674 811.352 608.242C811.982 608.81 812.318 609.547 812.359 610.453H810.992C810.951 609.906 810.742 609.458 810.367 609.109C809.997 608.755 809.539 608.578 808.992 608.578C808.258 608.578 807.688 608.844 807.281 609.375C806.88 609.901 806.68 610.664 806.68 611.664V611.938C806.68 612.911 806.88 613.661 807.281 614.188C807.682 614.714 808.255 614.977 809 614.977ZM815.555 616H814.109V607.547H815.555V616ZM813.992 605.305C813.992 605.07 814.062 604.872 814.203 604.711C814.349 604.549 814.562 604.469 814.844 604.469C815.125 604.469 815.339 604.549 815.484 604.711C815.63 604.872 815.703 605.07 815.703 605.305C815.703 605.539 815.63 605.734 815.484 605.891C815.339 606.047 815.125 606.125 814.844 606.125C814.562 606.125 814.349 606.047 814.203 605.891C814.062 605.734 813.992 605.539 813.992 605.305ZM817.492 611.695C817.492 610.867 817.654 610.122 817.977 609.461C818.305 608.799 818.758 608.289 819.336 607.93C819.919 607.57 820.583 607.391 821.328 607.391C822.479 607.391 823.409 607.789 824.117 608.586C824.831 609.383 825.188 610.443 825.188 611.766V611.867C825.188 612.69 825.029 613.43 824.711 614.086C824.398 614.737 823.948 615.245 823.359 615.609C822.776 615.974 822.104 616.156 821.344 616.156C820.198 616.156 819.268 615.758 818.555 614.961C817.846 614.164 817.492 613.109 817.492 611.797V611.695ZM818.945 611.867C818.945 612.805 819.161 613.557 819.594 614.125C820.031 614.693 820.615 614.977 821.344 614.977C822.078 614.977 822.661 614.69 823.094 614.117C823.526 613.539 823.742 612.732 823.742 611.695C823.742 610.768 823.521 610.018 823.078 609.445C822.641 608.867 822.057 608.578 821.328 608.578C820.615 608.578 820.039 608.862 819.602 609.43C819.164 609.997 818.945 610.81 818.945 611.867ZM828.367 607.547L828.414 608.609C829.06 607.797 829.904 607.391 830.945 607.391C832.732 607.391 833.633 608.398 833.648 610.414V616H832.203V610.406C832.198 609.797 832.057 609.346 831.781 609.055C831.51 608.763 831.086 608.617 830.508 608.617C830.039 608.617 829.628 608.742 829.273 608.992C828.919 609.242 828.643 609.57 828.445 609.977V616H827V607.547H828.367ZM841.047 616C840.964 615.833 840.896 615.536 840.844 615.109C840.172 615.807 839.37 616.156 838.438 616.156C837.604 616.156 836.919 615.922 836.383 615.453C835.852 614.979 835.586 614.38 835.586 613.656C835.586 612.776 835.919 612.094 836.586 611.609C837.258 611.12 838.201 610.875 839.414 610.875H840.82V610.211C840.82 609.706 840.669 609.305 840.367 609.008C840.065 608.706 839.62 608.555 839.031 608.555C838.516 608.555 838.083 608.685 837.734 608.945C837.385 609.206 837.211 609.521 837.211 609.891H835.758C835.758 609.469 835.906 609.062 836.203 608.672C836.505 608.276 836.911 607.964 837.422 607.734C837.938 607.505 838.503 607.391 839.117 607.391C840.091 607.391 840.854 607.635 841.406 608.125C841.958 608.609 842.245 609.279 842.266 610.133V614.023C842.266 614.799 842.365 615.417 842.562 615.875V616H841.047ZM838.648 614.898C839.102 614.898 839.531 614.781 839.938 614.547C840.344 614.312 840.638 614.008 840.82 613.633V611.898H839.688C837.917 611.898 837.031 612.417 837.031 613.453C837.031 613.906 837.182 614.26 837.484 614.516C837.786 614.771 838.174 614.898 838.648 614.898ZM846.102 616H844.656V604H846.102V616ZM851.758 611.461C851.758 612.622 851.604 613.737 851.297 614.805C850.995 615.867 850.529 616.849 849.898 617.75C849.273 618.651 848.617 619.292 847.93 619.672L847.625 618.789C848.427 618.174 849.07 617.221 849.555 615.93C850.044 614.633 850.294 613.195 850.305 611.617V611.367C850.305 610.273 850.19 609.258 849.961 608.32C849.732 607.378 849.411 606.534 849 605.789C848.594 605.044 848.135 604.464 847.625 604.047L847.93 603.164C848.617 603.544 849.271 604.18 849.891 605.07C850.516 605.961 850.982 606.943 851.289 608.016C851.602 609.089 851.758 610.237 851.758 611.461Z" fill="#B4B4B4"/>
<path d="M698.805 669.922H694.133V673.422H699.594V675H692.156V663.625H699.539V665.219H694.133V668.359H698.805V669.922ZM710.227 675H708.25L703.18 666.93V675H701.203V663.625H703.18L708.266 671.727V663.625H710.227V675ZM716.57 672.523L719.461 663.625H721.633L717.539 675H715.625L711.547 663.625H713.711L716.57 672.523ZM725.008 675H723.039V663.625H725.008V675ZM733.945 672.352H729.539L728.617 675H726.562L730.859 663.625H732.633L736.938 675H734.875L733.945 672.352ZM730.094 670.758H733.391L731.742 666.039L730.094 670.758ZM742.414 670.617H740.211V675H738.234V663.625H742.234C743.547 663.625 744.56 663.919 745.273 664.508C745.987 665.096 746.344 665.948 746.344 667.062C746.344 667.823 746.159 668.461 745.789 668.977C745.424 669.487 744.914 669.88 744.258 670.156L746.812 674.898V675H744.695L742.414 670.617ZM740.211 669.031H742.242C742.909 669.031 743.43 668.865 743.805 668.531C744.18 668.193 744.367 667.732 744.367 667.148C744.367 666.539 744.193 666.068 743.844 665.734C743.5 665.401 742.984 665.229 742.297 665.219H740.211V669.031Z" fill="white"/>
</svg>
